<?xml version="1.0" encoding="utf-8"?>
<!-- Generator: Adobe Illustrator 26.0.1, SVG Export Plug-In . SVG Version: 6.00 Build 0)  -->
<svg version="1.1" id="Layer_1" xmlns="http://www.w3.org/2000/svg" xmlns:xlink="http://www.w3.org/1999/xlink" x="0px" y="0px"
	 viewBox="0 0 1024 1024" style="enable-background:new 0 0 1024 1024;" xml:space="preserve">
<style type="text/css">
	.st0{fill:#FFFFFF;}
</style>
<circle id="XMLID_8_" cx="512" cy="512" r="512"/>
<g id="layer1" transform="translate(0,-308.26772)">
	<g id="XMLID_4_">
		<g id="XMLID_5_">
			<g id="g4148_1_">
				<g id="g4162_1_" transform="translate(80.2835,120.7108)">
					<path id="path4164_1_" class="st0" d="M180.3,882.9L180.3,882.9c-13.8,0-25.1-11.2-25.1-25.1V519.5c0-13.8,11.3-25.1,25.1-25.1
						s25.1,11.2,25.1,25.1v338.3C205.4,871.6,194.2,882.9,180.3,882.9"/>
				</g>
				<g id="g4166_1_" transform="translate(426.284,120.7108)">
					<path id="path4168_1_" class="st0" d="M345.1,882.9L345.1,882.9c-13.8,0-25.1-11.2-25.1-25.1V672.7c0-13.8,11.3-25.1,25.1-25.1
						l0,0c13.8,0,25.1,11.2,25.1,25.1v185.1C370.2,871.6,359,882.9,345.1,882.9"/>
				</g>
				<g id="g4170_1_" transform="translate(189.5921,232.1972)">
					<path id="path4172_1_" class="st0" d="M232.3,607.1H123.2c-6.8,0-12.4-5.5-12.4-12.3v-23.2c0-6.8,5.5-12.3,12.4-12.3h109.1
						c6.8,0,12.4,5.5,12.4,12.3v23.2C244.7,601.6,239.1,607.1,232.3,607.1"/>
				</g>
				<g id="g4174_1_" transform="translate(400.8631,231.289)">
					<path id="path4176_1_" class="st0" d="M333.1,609.3H89.8c-20.5,0-37.3-16.8-37.3-37.2v-67.6c0-20.4,16.8-37.2,37.3-37.2h130.7
						c61.8,0,112.6,50.5,112.6,112.4V609.3z"/>
				</g>
				<g id="g4178_1_" transform="translate(199.3884,301.6849)">
					<path id="path4180_1_" class="st0" d="M237.1,435.2c0,26-21,47-47.1,47s-47.1-21-47.1-47c0-26,21-47,47.1-47
						C215.9,388.3,237.1,409.3,237.1,435.2"/>
				</g>
				<g id="g4182_1_" transform="translate(65.6091,204.1893)">
					<path id="path4184_1_" class="st0" d="M173.3,676.4L173.3,676.4c0-13.8,11.3-25.1,25.1-25.1h503.1c13.8,0,25.1,11.2,25.1,25.1
						s-11.3,25.1-25.1,25.1H198.3C184.5,701.4,173.3,690.2,173.3,676.4"/>
				</g>
			</g>
		</g>
	</g>
</g>
</svg>
