<?xml version="1.0" encoding="UTF-8" standalone="no"?>
<!-- Created with Inkscape (http://www.inkscape.org/) -->

<svg
   width="200mm"
   height="200mm"
   viewBox="0 0 200 200"
   version="1.1"
   id="svg5"
   xmlns="http://www.w3.org/2000/svg"
   xmlns:svg="http://www.w3.org/2000/svg">
  <defs
     id="defs2">
    <rect
       x="-5"
       y="5"
       width="823"
       height="765"
       id="rect35899" />
    <rect
       x="-117.28823"
       y="-70.009254"
       width="875.57028"
       height="784.64917"
       id="rect14067" />
  </defs>
  <g
     id="layer1">
    <path
       id="path846"
       style="fill:#73b144;fill-opacity:1;fill-rule:evenodd;stroke-width:0.875763;stroke-linecap:round"
       d="M 100.00009,0 A 100,100 0 0 0 0,100.0001 100,100 0 0 0 100.00009,200.00019 100,100 0 0 0 200.0002,100.0001 100,100 0 0 0 100.00009,0 Z m 0,11.500073 A 88.499999,88.499999 0 0 1 188.50012,100.0001 88.499999,88.499999 0 0 1 100.00009,188.50012 88.499999,88.499999 0 0 1 11.500073,100.0001 88.499999,88.499999 0 0 1 100.00009,11.500073 Z" />
    <g
       aria-label="1"
       id="text51091"
       style="font-weight:600;font-size:141.111px;line-height:1.25;font-family:Montserrat;-inkscape-font-specification:'Montserrat Semi-Bold';fill:#73b144;stroke-width:0.264583"
       transform="translate(-204.29143,5.432578)">
      <g
         aria-label="2"
         id="text2963"
         style="font-weight:normal;font-size:171.979px;font-family:'Segoe UI';-inkscape-font-specification:'Segoe UI';stroke-width:1.13061">
        <path
           d="m 322.80782,66.940031 q 0,-5.542293 -1.76346,-9.657025 -1.67948,-4.114732 -4.70255,-6.801904 -2.93909,-2.771146 -6.96985,-4.114732 -4.03076,-1.343586 -8.73331,-1.343586 -4.03076,0 -7.89357,1.091664 -3.86281,1.091664 -7.55767,3.023068 -3.61088,1.931405 -7.05382,4.618577 -3.35897,2.687172 -6.29806,5.962163 V 44.93881 q 5.79421,-5.626266 12.93201,-8.56536 7.22178,-3.023069 17.55059,-3.023069 7.38973,0 13.68779,2.183328 6.29806,2.099353 10.91663,6.214085 4.61858,4.114732 7.22178,10.160869 2.68717,6.046136 2.68717,13.85573 0,7.1378 -1.67948,12.932015 -1.59551,5.794214 -4.95448,10.916636 -3.27499,5.122421 -8.31344,9.824972 -5.03844,4.702554 -11.84035,9.573054 -8.48138,6.04613 -14.02367,10.32881 -5.45832,4.28268 -8.73331,8.06152 -3.19102,3.69486 -4.53461,7.4737 -1.25961,3.69486 -1.25961,8.56536 h 59.95753 v 12.34419 h -74.3171 v -5.96216 q 0,-7.72562 1.67948,-13.60381 1.67948,-5.87819 5.54229,-11.16856 3.86281,-5.29037 10.0769,-10.58074 6.29806,-5.29037 15.36726,-11.92432 6.54998,-4.702552 10.91664,-8.985232 4.45063,-4.282681 7.1378,-8.565361 2.68717,-4.28268 3.77883,-8.649335 1.17564,-4.450628 1.17564,-9.405101 z"
           id="path35524" />
      </g>
    </g>
  </g>
</svg>
