<?xml version="1.0" encoding="UTF-8" standalone="no"?>
<!-- Created with Inkscape (http://www.inkscape.org/) -->

<svg
   width="200mm"
   height="200mm"
   viewBox="0 0 200 200"
   version="1.1"
   id="svg5"
   xmlns="http://www.w3.org/2000/svg"
   xmlns:svg="http://www.w3.org/2000/svg">
  <defs
     id="defs2">
    <rect
       x="-5"
       y="5"
       width="823"
       height="765"
       id="rect35899" />
    <rect
       x="-117.28823"
       y="-70.009254"
       width="875.57028"
       height="784.64917"
       id="rect14067" />
  </defs>
  <g
     id="layer1">
    <path
       id="path846"
       style="fill:#73b144;fill-opacity:1;fill-rule:evenodd;stroke-width:0.875763;stroke-linecap:round"
       d="M 100.00009,0 A 100,100 0 0 0 0,100.0001 100,100 0 0 0 100.00009,200.00019 100,100 0 0 0 200.0002,100.0001 100,100 0 0 0 100.00009,0 Z m 0,11.500073 A 88.499999,88.499999 0 0 1 188.50012,100.0001 88.499999,88.499999 0 0 1 100.00009,188.50012 88.499999,88.499999 0 0 1 11.500073,100.0001 88.499999,88.499999 0 0 1 100.00009,11.500073 Z" />
    <g
       aria-label="1"
       id="text51091"
       style="font-weight:600;font-size:141.111px;line-height:1.25;font-family:Montserrat;-inkscape-font-specification:'Montserrat Semi-Bold';fill:#73b144;stroke-width:0.264583"
       transform="translate(-204.29143,5.432578)">
      <g
         aria-label="3"
         id="text2963"
         style="font-weight:normal;font-size:171.979px;font-family:'Segoe UI';-inkscape-font-specification:'Segoe UI';stroke-width:1.13061">
        <path
           d="m 339.1408,120.64148 q 0,8.14549 -3.10704,14.86342 -3.02307,6.63395 -8.64933,11.42048 -5.5423,4.70255 -13.35189,7.30575 -7.80959,2.60319 -17.21469,2.60319 -17.2147,0 -27.37557,-6.54998 V 135.5049 q 12.17625,9.57305 27.87941,9.57305 6.29806,0 11.33651,-1.59551 5.12242,-1.59551 8.73331,-4.61858 3.69486,-3.02307 5.62626,-7.30575 2.01538,-4.28268 2.01538,-9.65702 0,-23.596731 -33.58965,-23.596731 h -9.99292 V 86.631956 h 9.48908 q 29.72684,0 29.72684,-22.169168 0,-20.489686 -22.67302,-20.489686 -12.76406,0 -23.93262,8.56536 V 39.186577 q 11.50445,-6.885878 27.37556,-6.885878 7.55767,0 13.68778,2.099353 6.13012,2.099353 10.49677,5.878188 4.36665,3.778836 6.71793,9.069206 2.43525,5.290369 2.43525,11.672403 0,23.764677 -24.0166,30.566581 v 0.335896 q 6.13011,0.671793 11.33651,3.023069 5.20639,2.267301 8.98523,5.962165 3.77883,3.69486 5.87819,8.73331 2.18332,4.95447 2.18332,11.00061 z"
           id="path37774" />
      </g>
    </g>
  </g>
</svg>
