<?xml version="1.0" encoding="utf-8"?>
<!-- Generator: Adobe Illustrator 26.0.1, SVG Export Plug-In . SVG Version: 6.00 Build 0)  -->
<svg version="1.1" id="Layer_1" xmlns="http://www.w3.org/2000/svg" xmlns:xlink="http://www.w3.org/1999/xlink" x="0px" y="0px"
	 viewBox="0 0 1024 1024" style="enable-background:new 0 0 1024 1024;" xml:space="preserve">
<g>
	<path d="M512,0C229.2,0,0,229.2,0,512s229.2,512,512,512s512-229.2,512-512S794.8,0,512,0z M453.4,427.5
		c0-20.4,16.8-37.2,37.3-37.2h130.7c61.8,0,112.6,50.5,112.6,112.4v29.6H490.7c-20.5,0-37.3-16.8-37.3-37.2V427.5z M389.4,381.6
		c25.9,0.1,47.1,21.1,47.1,47c0,26-21,47-47.1,47c-26.1,0-47.1-21-47.1-47S363.3,381.6,389.4,381.6z M300.4,495.5
		c0-6.8,5.5-12.3,12.4-12.3h109.1c6.8,0,12.4,5.5,12.4,12.3v23.2c0,6.8-5.6,12.3-12.4,12.3H312.8c-6.8,0-12.4-5.5-12.4-12.3V495.5z
		 M796.5,670.2c0,13.8-11.2,25.1-25.1,25.1c-13.8,0-25.1-11.2-25.1-25.1v-72.8H285.7v72.8c0,13.8-11.2,25.1-25.1,25.1
		c-13.8,0-25.1-11.2-25.1-25.1V331.9c0-13.8,11.3-25.1,25.1-25.1s25.1,11.2,25.1,25.1v215.3h460.6v-62.1c0-13.8,11.3-25.1,25.1-25.1
		c13.8,0,25.1,11.2,25.1,25.1V670.2z"/>
</g>
</svg>
