<?xml version="1.0" encoding="UTF-8" standalone="no"?>
<!-- Created with Inkscape (http://www.inkscape.org/) -->

<svg
   version="1.1"
   id="svg2"
   xml:space="preserve"
   width="633.97302"
   height="119.16"
   viewBox="0 0 633.97303 119.16"
   xmlns="http://www.w3.org/2000/svg"
   xmlns:svg="http://www.w3.org/2000/svg"><defs
     id="defs6"><clipPath
       clipPathUnits="userSpaceOnUse"
       id="clipPath16"><path
         d="M 0,841.89 H 595.28 V 0 H 0 Z"
         id="path14" /></clipPath></defs><g
     id="g8"
     transform="matrix(1.3333333,0,0,-1.3333333,0,1122.52)"><g
       id="g10"
       transform="translate(-55.6692,289.82922)"><g
         id="g12"
         clip-path="url(#clipPath16)"><g
           id="g18"
           transform="translate(145.0392,507.3758)"><path
             d="m 0,0 c 0,-24.679 -20.006,-44.685 -44.685,-44.685 -24.679,0 -44.685,20.006 -44.685,44.685 0,24.679 20.006,44.685 44.685,44.685 C -20.006,44.685 0,24.679 0,0"
             style="fill:#000000;fill-opacity:1;fill-rule:nonzero;stroke:none"
             id="path20" /></g><g
           id="g22"
           transform="translate(78.4126,491.3783)"><path
             d="m 0,0 v 0 c -1.208,0 -2.19,0.98 -2.19,2.186 v 29.528 c 0,1.206 0.982,2.186 2.19,2.186 1.208,0 2.19,-0.98 2.19,-2.186 V 2.186 C 2.19,0.98 1.208,0 0,0"
             style="fill:#ffffff;fill-opacity:1;fill-rule:nonzero;stroke:none"
             id="path24" /></g><g
           id="g26"
           transform="translate(122.9951,491.3783)"><path
             d="M 0,0 V 0 C -1.208,0 -2.19,0.98 -2.19,2.186 V 18.34 c 0,1.206 0.982,2.187 2.19,2.187 1.208,0 2.19,-0.981 2.19,-2.187 V 2.186 C 2.19,0.98 1.208,0 0,0"
             style="fill:#ffffff;fill-opacity:1;fill-rule:nonzero;stroke:none"
             id="path28" /></g><g
           id="g30"
           transform="translate(92.491,505.7142)"><path
             d="m 0,0 h -9.519 c -0.596,0 -1.079,0.482 -1.079,1.077 v 2.025 c 0,0.595 0.483,1.077 1.079,1.077 H 0 c 0.596,0 1.079,-0.482 1.079,-1.077 V 1.077 C 1.079,0.482 0.596,0 0,0"
             style="fill:#ffffff;fill-opacity:1;fill-rule:nonzero;stroke:none"
             id="path32" /></g><g
           id="g34"
           transform="translate(119.7222,505.6003)"><path
             d="m 0,0 h -21.228 c -1.788,0 -3.254,1.463 -3.254,3.247 v 5.899 c 0,1.784 1.466,3.247 3.254,3.247 H -9.825 C -4.429,12.393 0,7.989 0,2.588 Z"
             style="fill:#ffffff;fill-opacity:1;fill-rule:nonzero;stroke:none"
             id="path36" /></g><g
           id="g38"
           transform="translate(93.7628,514.6494)"><path
             d="m 0,0 c 0,-2.266 -1.836,-4.099 -4.107,-4.099 -2.271,0 -4.107,1.833 -4.107,4.099 0,2.266 1.836,4.099 4.107,4.099 C -1.852,4.099 0,2.266 0,0"
             style="fill:#ffffff;fill-opacity:1;fill-rule:nonzero;stroke:none"
             id="path40" /></g><g
           id="g42"
           transform="translate(76.5162,502.1123)"><path
             d="m 0,0 v 0 c 0,1.206 0.982,2.186 2.19,2.186 h 43.906 c 1.208,0 2.191,-0.98 2.191,-2.186 0,-1.206 -0.983,-2.186 -2.191,-2.186 H 2.19 C 0.982,-2.186 0,-1.206 0,0"
             style="fill:#ffffff;fill-opacity:1;fill-rule:nonzero;stroke:none"
             id="path44" /></g><g
           id="g46"
           transform="translate(187.1753,491.7129)"><path
             d="m 0,0 c 4.138,0 7.072,0.64 8.8,1.92 1.728,1.279 2.592,3.093 2.592,5.439 0,4.865 -3.776,7.296 -11.328,7.296 H -11.968 V 0 Z m -1.344,19.903 c 3.797,0 6.464,0.641 8,1.92 1.536,1.28 2.304,3.072 2.304,5.376 0,2.005 -0.822,3.606 -2.464,4.801 -1.643,1.193 -3.894,1.792 -6.752,1.792 H -11.968 V 19.903 Z M -16.96,-4.608 c -0.555,0.553 -0.832,1.237 -0.832,2.047 v 38.848 c 0,0.811 0.277,1.505 0.832,2.08 0.554,0.576 1.237,0.864 2.048,0.864 H 0.192 c 4.565,0 8.096,-1.045 10.592,-3.135 2.496,-2.091 3.744,-4.908 3.744,-8.449 0,-2.474 -0.587,-4.534 -1.76,-6.175 -1.174,-1.644 -2.678,-2.87 -4.512,-3.68 2.56,-0.812 4.661,-2.112 6.304,-3.904 1.642,-1.792 2.464,-4.054 2.464,-6.784 0,-3.926 -1.323,-6.999 -3.968,-9.216 C 10.41,-4.331 6.25,-5.44 0.576,-5.44 h -15.488 c -0.811,0 -1.494,0.277 -2.048,0.832"
             style="fill:#231f20;fill-opacity:1;fill-rule:nonzero;stroke:none"
             id="path48" /></g><g
           id="g50"
           transform="translate(187.1753,491.7129)"><path
             d="m 0,0 c 4.138,0 7.072,0.64 8.8,1.92 1.728,1.279 2.592,3.093 2.592,5.439 0,4.865 -3.776,7.296 -11.328,7.296 H -11.968 V 0 Z m -1.344,19.903 c 3.797,0 6.464,0.641 8,1.92 1.536,1.28 2.304,3.072 2.304,5.376 0,2.005 -0.822,3.606 -2.464,4.801 -1.643,1.193 -3.894,1.792 -6.752,1.792 H -11.968 V 19.903 Z M -16.96,-4.608 c -0.555,0.553 -0.832,1.237 -0.832,2.047 v 38.848 c 0,0.811 0.277,1.505 0.832,2.08 0.554,0.576 1.237,0.864 2.048,0.864 H 0.192 c 4.565,0 8.096,-1.045 10.592,-3.135 2.496,-2.091 3.744,-4.908 3.744,-8.449 0,-2.474 -0.587,-4.534 -1.76,-6.175 -1.174,-1.644 -2.678,-2.87 -4.512,-3.68 2.56,-0.812 4.661,-2.112 6.304,-3.904 1.642,-1.792 2.464,-4.054 2.464,-6.784 0,-3.926 -1.323,-6.999 -3.968,-9.216 C 10.41,-4.331 6.25,-5.44 0.576,-5.44 h -15.488 c -0.811,0 -1.494,0.277 -2.048,0.832 z"
             style="fill:none;stroke:#231f20;stroke-width:2;stroke-linecap:butt;stroke-linejoin:miter;stroke-miterlimit:10;stroke-dasharray:none;stroke-opacity:1"
             id="path52" /></g><g
           id="g54"
           transform="translate(235.0474,505.2803)"><path
             d="m 0,0 c -0.128,2.09 -0.672,3.84 -1.632,5.248 -0.96,1.408 -2.144,2.442 -3.552,3.105 -1.408,0.661 -2.838,0.991 -4.288,0.991 -1.451,0 -2.88,-0.33 -4.288,-0.991 C -15.168,7.69 -16.342,6.656 -17.28,5.248 -18.219,3.84 -18.752,2.09 -18.88,0 Z m -20.384,-15.2 c -2.923,2.966 -4.384,7.137 -4.384,12.512 0,3.029 0.554,5.824 1.664,8.384 1.109,2.56 2.816,4.629 5.12,6.208 2.304,1.578 5.141,2.368 8.512,2.368 3.157,0 5.888,-0.736 8.192,-2.208 C 1.024,10.592 2.773,8.629 3.968,6.176 5.162,3.723 5.76,1.045 5.76,-1.855 5.76,-2.667 5.493,-3.35 4.96,-3.904 4.426,-4.459 3.712,-4.735 2.816,-4.735 H -18.88 c 0.341,-2.988 1.45,-5.313 3.328,-6.977 1.877,-1.664 4.501,-2.496 7.872,-2.496 1.792,0 3.36,0.17 4.704,0.512 1.344,0.342 2.656,0.832 3.936,1.472 0.341,0.17 0.725,0.256 1.152,0.256 0.682,0 1.28,-0.235 1.792,-0.704 0.512,-0.47 0.768,-1.067 0.768,-1.792 0,-0.938 -0.555,-1.727 -1.664,-2.368 -1.664,-0.939 -3.307,-1.643 -4.928,-2.111 -1.622,-0.47 -3.712,-0.704 -6.272,-0.704 -5.206,0 -9.27,1.481 -12.192,4.447"
             style="fill:#231f20;fill-opacity:1;fill-rule:nonzero;stroke:none"
             id="path56" /></g><g
           id="g58"
           transform="translate(235.0474,505.2803)"><path
             d="m 0,0 c -0.128,2.09 -0.672,3.84 -1.632,5.248 -0.96,1.408 -2.144,2.442 -3.552,3.105 -1.408,0.661 -2.838,0.991 -4.288,0.991 -1.451,0 -2.88,-0.33 -4.288,-0.991 C -15.168,7.69 -16.342,6.656 -17.28,5.248 -18.219,3.84 -18.752,2.09 -18.88,0 Z m -20.384,-15.2 c -2.923,2.966 -4.384,7.137 -4.384,12.512 0,3.029 0.554,5.824 1.664,8.384 1.109,2.56 2.816,4.629 5.12,6.208 2.304,1.578 5.141,2.368 8.512,2.368 3.157,0 5.888,-0.736 8.192,-2.208 C 1.024,10.592 2.773,8.629 3.968,6.176 5.162,3.723 5.76,1.045 5.76,-1.855 5.76,-2.667 5.493,-3.35 4.96,-3.904 4.426,-4.459 3.712,-4.735 2.816,-4.735 H -18.88 c 0.341,-2.988 1.45,-5.313 3.328,-6.977 1.877,-1.664 4.501,-2.496 7.872,-2.496 1.792,0 3.36,0.17 4.704,0.512 1.344,0.342 2.656,0.832 3.936,1.472 0.341,0.17 0.725,0.256 1.152,0.256 0.682,0 1.28,-0.235 1.792,-0.704 0.512,-0.47 0.768,-1.067 0.768,-1.792 0,-0.938 -0.555,-1.727 -1.664,-2.368 -1.664,-0.939 -3.307,-1.643 -4.928,-2.111 -1.622,-0.47 -3.712,-0.704 -6.272,-0.704 -5.206,0 -9.27,1.481 -12.192,4.447 z"
             style="fill:none;stroke:#231f20;stroke-width:2;stroke-linecap:butt;stroke-linejoin:miter;stroke-miterlimit:10;stroke-dasharray:none;stroke-opacity:1"
             id="path60" /></g><g
           id="g62"
           transform="translate(268.3594,492.3848)"><path
             d="M 0,0 C 1.728,0.874 3.253,2.037 4.576,3.487 V 16.928 C 3.253,18.378 1.728,19.541 0,20.416 c -1.728,0.874 -3.574,1.312 -5.536,1.312 -3.158,0 -5.696,-1.003 -7.616,-3.008 -1.92,-2.006 -2.88,-4.843 -2.88,-8.512 0,-3.67 0.96,-6.507 2.88,-8.513 1.92,-2.006 4.458,-3.007 7.616,-3.007 1.962,0 3.808,0.437 5.536,1.312 m -13.888,-4.736 c -2.368,1.343 -4.288,3.305 -5.76,5.887 -1.472,2.581 -2.208,5.601 -2.208,9.057 0,3.456 0.736,6.474 2.208,9.056 1.472,2.581 3.392,4.544 5.76,5.887 2.368,1.345 4.874,2.017 7.52,2.017 4.181,0 7.829,-1.622 10.944,-4.864 v 15.679 c 0,0.854 0.288,1.558 0.864,2.113 0.576,0.553 1.269,0.832 2.08,0.832 0.81,0 1.493,-0.288 2.048,-0.865 0.554,-0.576 0.832,-1.269 0.832,-2.08 V -3.553 c 0,-0.81 -0.278,-1.493 -0.832,-2.048 C 9.013,-6.154 8.33,-6.433 7.52,-6.433 c -0.811,0 -1.504,0.279 -2.08,0.832 -0.576,0.555 -0.864,1.238 -0.864,2.048 v 1.664 c -3.115,-3.242 -6.763,-4.863 -10.944,-4.863 -2.646,0 -5.152,0.672 -7.52,2.016"
             style="fill:#231f20;fill-opacity:1;fill-rule:nonzero;stroke:none"
             id="path64" /></g><g
           id="g66"
           transform="translate(268.3594,492.3848)"><path
             d="M 0,0 C 1.728,0.874 3.253,2.037 4.576,3.487 V 16.928 C 3.253,18.378 1.728,19.541 0,20.416 c -1.728,0.874 -3.574,1.312 -5.536,1.312 -3.158,0 -5.696,-1.003 -7.616,-3.008 -1.92,-2.006 -2.88,-4.843 -2.88,-8.512 0,-3.67 0.96,-6.507 2.88,-8.513 1.92,-2.006 4.458,-3.007 7.616,-3.007 1.962,0 3.808,0.437 5.536,1.312 z m -13.888,-4.736 c -2.368,1.343 -4.288,3.305 -5.76,5.887 -1.472,2.581 -2.208,5.601 -2.208,9.057 0,3.456 0.736,6.474 2.208,9.056 1.472,2.581 3.392,4.544 5.76,5.887 2.368,1.345 4.874,2.017 7.52,2.017 4.181,0 7.829,-1.622 10.944,-4.864 v 15.679 c 0,0.854 0.288,1.558 0.864,2.113 0.576,0.553 1.269,0.832 2.08,0.832 0.81,0 1.493,-0.288 2.048,-0.865 0.554,-0.576 0.832,-1.269 0.832,-2.08 V -3.553 c 0,-0.81 -0.278,-1.493 -0.832,-2.048 C 9.013,-6.154 8.33,-6.433 7.52,-6.433 c -0.811,0 -1.504,0.279 -2.08,0.832 -0.576,0.555 -0.864,1.238 -0.864,2.048 v 1.664 c -3.115,-3.242 -6.763,-4.863 -10.944,-4.863 -2.646,0 -5.152,0.672 -7.52,2.016 z"
             style="fill:none;stroke:#231f20;stroke-width:2;stroke-linecap:butt;stroke-linejoin:miter;stroke-miterlimit:10;stroke-dasharray:none;stroke-opacity:1"
             id="path68" /></g><g
           id="g70"
           transform="translate(307.1753,491.7129)"><path
             d="m 0,0 c 4.138,0 7.071,0.64 8.8,1.92 1.727,1.279 2.592,3.093 2.592,5.439 0,4.865 -3.776,7.296 -11.329,7.296 H -11.968 V 0 Z m -1.345,19.903 c 3.798,0 6.465,0.641 8,1.92 1.536,1.28 2.305,3.072 2.305,5.376 0,2.005 -0.822,3.606 -2.464,4.801 -1.643,1.193 -3.894,1.792 -6.752,1.792 H -11.968 V 19.903 Z M -16.96,-4.608 c -0.555,0.553 -0.832,1.237 -0.832,2.047 v 38.848 c 0,0.811 0.277,1.505 0.832,2.08 0.554,0.576 1.237,0.864 2.048,0.864 H 0.191 c 4.566,0 8.097,-1.045 10.593,-3.135 2.495,-2.091 3.743,-4.908 3.743,-8.449 0,-2.474 -0.587,-4.534 -1.759,-6.175 -1.174,-1.644 -2.678,-2.87 -4.512,-3.68 2.559,-0.812 4.661,-2.112 6.304,-3.904 1.642,-1.792 2.463,-4.054 2.463,-6.784 0,-3.926 -1.322,-6.999 -3.967,-9.216 C 10.41,-4.331 6.25,-5.44 0.576,-5.44 h -15.488 c -0.811,0 -1.494,0.277 -2.048,0.832"
             style="fill:#72b144;fill-opacity:1;fill-rule:nonzero;stroke:none"
             id="path72" /></g><g
           id="g74"
           transform="translate(307.1753,491.7129)"><path
             d="m 0,0 c 4.138,0 7.071,0.64 8.8,1.92 1.727,1.279 2.592,3.093 2.592,5.439 0,4.865 -3.776,7.296 -11.329,7.296 H -11.968 V 0 Z m -1.345,19.903 c 3.798,0 6.465,0.641 8,1.92 1.536,1.28 2.305,3.072 2.305,5.376 0,2.005 -0.822,3.606 -2.464,4.801 -1.643,1.193 -3.894,1.792 -6.752,1.792 H -11.968 V 19.903 Z M -16.96,-4.608 c -0.555,0.553 -0.832,1.237 -0.832,2.047 v 38.848 c 0,0.811 0.277,1.505 0.832,2.08 0.554,0.576 1.237,0.864 2.048,0.864 H 0.191 c 4.566,0 8.097,-1.045 10.593,-3.135 2.495,-2.091 3.743,-4.908 3.743,-8.449 0,-2.474 -0.587,-4.534 -1.759,-6.175 -1.174,-1.644 -2.678,-2.87 -4.512,-3.68 2.559,-0.812 4.661,-2.112 6.304,-3.904 1.642,-1.792 2.463,-4.054 2.463,-6.784 0,-3.926 -1.322,-6.999 -3.967,-9.216 C 10.41,-4.331 6.25,-5.44 0.576,-5.44 h -15.488 c -0.811,0 -1.494,0.277 -2.048,0.832 z"
             style="fill:none;stroke:#72b144;stroke-width:2;stroke-linecap:butt;stroke-linejoin:miter;stroke-miterlimit:10;stroke-dasharray:none;stroke-opacity:1"
             id="path76" /></g><g
           id="g78"
           transform="translate(351.687,492.1602)"><path
             d="m 0,0 c 1.601,0.811 2.922,2.09 3.969,3.84 1.045,1.749 1.567,3.969 1.567,6.656 0,2.646 -0.522,4.842 -1.567,6.592 -1.047,1.749 -2.368,3.018 -3.969,3.808 -1.6,0.79 -3.274,1.184 -5.023,1.184 -1.792,0 -3.489,-0.394 -5.088,-1.184 -1.601,-0.79 -2.912,-2.059 -3.937,-3.808 -1.023,-1.75 -1.536,-3.946 -1.536,-6.592 0,-2.687 0.513,-4.907 1.536,-6.656 1.025,-1.75 2.336,-3.029 3.937,-3.84 1.599,-0.811 3.296,-1.216 5.088,-1.216 1.749,0 3.423,0.405 5.023,1.216 m -13.664,-4.416 c -2.475,1.408 -4.384,3.402 -5.728,5.984 -1.343,2.581 -2.016,5.536 -2.016,8.865 0,3.328 0.673,6.281 2.016,8.863 1.344,2.581 3.253,4.576 5.728,5.984 2.475,1.408 5.354,2.113 8.641,2.113 3.242,0 6.1,-0.705 8.576,-2.113 2.473,-1.408 4.393,-3.403 5.759,-5.984 1.365,-2.582 2.048,-5.535 2.048,-8.863 0,-3.329 -0.683,-6.284 -2.048,-8.865 -1.366,-2.582 -3.286,-4.576 -5.759,-5.984 -2.476,-1.407 -5.334,-2.111 -8.576,-2.111 -3.287,0 -6.166,0.704 -8.641,2.111"
             style="fill:#72b144;fill-opacity:1;fill-rule:nonzero;stroke:none"
             id="path80" /></g><g
           id="g82"
           transform="translate(351.687,492.1602)"><path
             d="m 0,0 c 1.601,0.811 2.922,2.09 3.969,3.84 1.045,1.749 1.567,3.969 1.567,6.656 0,2.646 -0.522,4.842 -1.567,6.592 -1.047,1.749 -2.368,3.018 -3.969,3.808 -1.6,0.79 -3.274,1.184 -5.023,1.184 -1.792,0 -3.489,-0.394 -5.088,-1.184 -1.601,-0.79 -2.912,-2.059 -3.937,-3.808 -1.023,-1.75 -1.536,-3.946 -1.536,-6.592 0,-2.687 0.513,-4.907 1.536,-6.656 1.025,-1.75 2.336,-3.029 3.937,-3.84 1.599,-0.811 3.296,-1.216 5.088,-1.216 1.749,0 3.423,0.405 5.023,1.216 z m -13.664,-4.416 c -2.475,1.408 -4.384,3.402 -5.728,5.984 -1.343,2.581 -2.016,5.536 -2.016,8.865 0,3.328 0.673,6.281 2.016,8.863 1.344,2.581 3.253,4.576 5.728,5.984 2.475,1.408 5.354,2.113 8.641,2.113 3.242,0 6.1,-0.705 8.576,-2.113 2.473,-1.408 4.393,-3.403 5.759,-5.984 1.365,-2.582 2.048,-5.535 2.048,-8.863 0,-3.329 -0.683,-6.284 -2.048,-8.865 -1.366,-2.582 -3.286,-4.576 -5.759,-5.984 -2.476,-1.407 -5.334,-2.111 -8.576,-2.111 -3.287,0 -6.166,0.704 -8.641,2.111 z"
             style="fill:none;stroke:#72b144;stroke-width:2;stroke-linecap:butt;stroke-linejoin:miter;stroke-miterlimit:10;stroke-dasharray:none;stroke-opacity:1"
             id="path84" /></g><g
           id="g86"
           transform="translate(390.5981,492.1602)"><path
             d="m 0,0 c 1.6,0.811 2.922,2.09 3.968,3.84 1.045,1.749 1.567,3.969 1.567,6.656 0,2.646 -0.522,4.842 -1.567,6.592 C 2.922,18.837 1.6,20.106 0,20.896 c -1.601,0.79 -3.275,1.184 -5.024,1.184 -1.792,0 -3.489,-0.394 -5.088,-1.184 -1.601,-0.79 -2.912,-2.059 -3.937,-3.808 -1.023,-1.75 -1.535,-3.946 -1.535,-6.592 0,-2.687 0.512,-4.907 1.535,-6.656 1.025,-1.75 2.336,-3.029 3.937,-3.84 1.599,-0.811 3.296,-1.216 5.088,-1.216 1.749,0 3.423,0.405 5.024,1.216 m -13.664,-4.416 c -2.476,1.408 -4.385,3.402 -5.729,5.984 -1.343,2.581 -2.015,5.536 -2.015,8.865 0,3.328 0.672,6.281 2.015,8.863 1.344,2.581 3.253,4.576 5.729,5.984 2.474,1.408 5.353,2.113 8.64,2.113 3.242,0 6.1,-0.705 8.576,-2.113 2.473,-1.408 4.393,-3.403 5.76,-5.984 1.365,-2.582 2.047,-5.535 2.047,-8.863 0,-3.329 -0.682,-6.284 -2.047,-8.865 -1.367,-2.582 -3.287,-4.576 -5.76,-5.984 -2.476,-1.407 -5.334,-2.111 -8.576,-2.111 -3.287,0 -6.166,0.704 -8.64,2.111"
             style="fill:#72b144;fill-opacity:1;fill-rule:nonzero;stroke:none"
             id="path88" /></g><g
           id="g90"
           transform="translate(390.5981,492.1602)"><path
             d="m 0,0 c 1.6,0.811 2.922,2.09 3.968,3.84 1.045,1.749 1.567,3.969 1.567,6.656 0,2.646 -0.522,4.842 -1.567,6.592 C 2.922,18.837 1.6,20.106 0,20.896 c -1.601,0.79 -3.275,1.184 -5.024,1.184 -1.792,0 -3.489,-0.394 -5.088,-1.184 -1.601,-0.79 -2.912,-2.059 -3.937,-3.808 -1.023,-1.75 -1.535,-3.946 -1.535,-6.592 0,-2.687 0.512,-4.907 1.535,-6.656 1.025,-1.75 2.336,-3.029 3.937,-3.84 1.599,-0.811 3.296,-1.216 5.088,-1.216 1.749,0 3.423,0.405 5.024,1.216 z m -13.664,-4.416 c -2.476,1.408 -4.385,3.402 -5.729,5.984 -1.343,2.581 -2.015,5.536 -2.015,8.865 0,3.328 0.672,6.281 2.015,8.863 1.344,2.581 3.253,4.576 5.729,5.984 2.474,1.408 5.353,2.113 8.64,2.113 3.242,0 6.1,-0.705 8.576,-2.113 2.473,-1.408 4.393,-3.403 5.76,-5.984 1.365,-2.582 2.047,-5.535 2.047,-8.863 0,-3.329 -0.682,-6.284 -2.047,-8.865 -1.367,-2.582 -3.287,-4.576 -5.76,-5.984 -2.476,-1.407 -5.334,-2.111 -8.576,-2.111 -3.287,0 -6.166,0.704 -8.64,2.111 z"
             style="fill:none;stroke:#72b144;stroke-width:2;stroke-linecap:butt;stroke-linejoin:miter;stroke-miterlimit:10;stroke-dasharray:none;stroke-opacity:1"
             id="path92" /></g><g
           id="g94"
           transform="translate(410.9175,486.7842)"><path
             d="m 0,0 c -0.555,0.555 -0.832,1.237 -0.832,2.048 v 41.536 c 0,0.811 0.277,1.504 0.832,2.08 0.555,0.576 1.237,0.864 2.048,0.864 0.81,0 1.505,-0.288 2.08,-0.864 0.576,-0.576 0.864,-1.269 0.864,-2.08 V 17.408 l 15.233,14.08 c 0.639,0.554 1.279,0.832 1.92,0.832 0.98,0 1.695,-0.278 2.143,-0.832 0.448,-0.554 0.672,-1.216 0.672,-1.984 0,-0.726 -0.362,-1.45 -1.088,-2.176 L 14.656,19.072 26.24,3.712 c 0.426,-0.555 0.64,-1.131 0.64,-1.728 0,-0.854 -0.277,-1.536 -0.832,-2.047 -0.555,-0.513 -1.259,-0.769 -2.111,-0.769 -0.427,0 -0.855,0.107 -1.281,0.32 C 22.229,-0.299 21.866,0 21.568,0.385 L 10.561,15.36 4.992,10.305 V 2.048 C 4.992,1.237 4.704,0.555 4.128,0 3.553,-0.554 2.858,-0.832 2.048,-0.832 1.237,-0.832 0.555,-0.554 0,0"
             style="fill:#72b144;fill-opacity:1;fill-rule:nonzero;stroke:none"
             id="path96" /></g><g
           id="g98"
           transform="translate(410.9175,486.7842)"><path
             d="m 0,0 c -0.555,0.555 -0.832,1.237 -0.832,2.048 v 41.536 c 0,0.811 0.277,1.504 0.832,2.08 0.555,0.576 1.237,0.864 2.048,0.864 0.81,0 1.505,-0.288 2.08,-0.864 0.576,-0.576 0.864,-1.269 0.864,-2.08 V 17.408 l 15.233,14.08 c 0.639,0.554 1.279,0.832 1.92,0.832 0.98,0 1.695,-0.278 2.143,-0.832 0.448,-0.554 0.672,-1.216 0.672,-1.984 0,-0.726 -0.362,-1.45 -1.088,-2.176 L 14.656,19.072 26.24,3.712 c 0.426,-0.555 0.64,-1.131 0.64,-1.728 0,-0.854 -0.277,-1.536 -0.832,-2.047 -0.555,-0.513 -1.259,-0.769 -2.111,-0.769 -0.427,0 -0.855,0.107 -1.281,0.32 C 22.229,-0.299 21.866,0 21.568,0.385 L 10.561,15.36 4.992,10.305 V 2.048 C 4.992,1.237 4.704,0.555 4.128,0 3.553,-0.554 2.858,-0.832 2.048,-0.832 1.237,-0.832 0.555,-0.554 0,0 Z"
             style="fill:none;stroke:#72b144;stroke-width:2;stroke-linecap:butt;stroke-linejoin:miter;stroke-miterlimit:10;stroke-dasharray:none;stroke-opacity:1"
             id="path100" /></g><g
           id="g102"
           transform="translate(445.7964,486.7842)"><path
             d="m 0,0 c -0.555,0.555 -0.832,1.237 -0.832,2.048 v 27.456 c 0,0.81 0.277,1.504 0.832,2.08 0.555,0.576 1.237,0.864 2.048,0.864 0.853,0 1.557,-0.278 2.112,-0.832 0.554,-0.555 0.832,-1.259 0.832,-2.112 V 2.048 C 4.992,1.237 4.704,0.555 4.128,0 3.553,-0.554 2.858,-0.832 2.048,-0.832 1.237,-0.832 0.555,-0.554 0,0 m -0.384,39.744 c -0.639,0.641 -0.96,1.408 -0.96,2.304 v 0.257 c 0,0.895 0.321,1.664 0.96,2.303 0.64,0.64 1.408,0.96 2.304,0.96 h 0.385 c 0.895,0 1.664,-0.32 2.303,-0.96 0.64,-0.639 0.96,-1.408 0.96,-2.303 v -0.257 c 0,-0.896 -0.32,-1.663 -0.96,-2.304 C 3.969,39.104 3.2,38.784 2.305,38.784 H 1.92 c -0.896,0 -1.664,0.32 -2.304,0.96"
             style="fill:#72b144;fill-opacity:1;fill-rule:nonzero;stroke:none"
             id="path104" /></g><g
           id="g106"
           transform="translate(445.7964,486.7842)"><path
             d="m 0,0 c -0.555,0.555 -0.832,1.237 -0.832,2.048 v 27.456 c 0,0.81 0.277,1.504 0.832,2.08 0.555,0.576 1.237,0.864 2.048,0.864 0.853,0 1.557,-0.278 2.112,-0.832 0.554,-0.555 0.832,-1.259 0.832,-2.112 V 2.048 C 4.992,1.237 4.704,0.555 4.128,0 3.553,-0.554 2.858,-0.832 2.048,-0.832 1.237,-0.832 0.555,-0.554 0,0 Z m -0.384,39.744 c -0.639,0.641 -0.96,1.408 -0.96,2.304 v 0.257 c 0,0.895 0.321,1.664 0.96,2.303 0.64,0.64 1.408,0.96 2.304,0.96 h 0.385 c 0.895,0 1.664,-0.32 2.303,-0.96 0.64,-0.639 0.96,-1.408 0.96,-2.303 v -0.257 c 0,-0.896 -0.32,-1.663 -0.96,-2.304 C 3.969,39.104 3.2,38.784 2.305,38.784 H 1.92 c -0.896,0 -1.664,0.32 -2.304,0.96 z"
             style="fill:none;stroke:#72b144;stroke-width:2;stroke-linecap:butt;stroke-linejoin:miter;stroke-miterlimit:10;stroke-dasharray:none;stroke-opacity:1"
             id="path108" /></g><g
           id="g110"
           transform="translate(461.7319,486.7842)"><path
             d="m 0,0 c -0.555,0.555 -0.832,1.237 -0.832,2.048 v 27.456 c 0,0.81 0.277,1.504 0.832,2.08 0.555,0.576 1.237,0.864 2.048,0.864 0.81,0 1.505,-0.288 2.08,-0.864 0.576,-0.576 0.864,-1.27 0.864,-2.08 V 26.88 c 1.621,1.792 3.37,3.222 5.248,4.288 1.877,1.066 4.096,1.601 6.656,1.601 2.346,0 4.384,-0.556 6.113,-1.665 1.727,-1.11 3.05,-2.624 3.968,-4.543 0.917,-1.92 1.376,-4.033 1.376,-6.336 V 2.048 c 0,-0.811 -0.289,-1.493 -0.865,-2.048 -0.576,-0.554 -1.269,-0.832 -2.08,-0.832 -0.81,0 -1.494,0.278 -2.048,0.832 -0.554,0.555 -0.832,1.237 -0.832,2.048 v 17.536 c 0,5.205 -2.346,7.809 -7.04,7.809 -2.134,0 -4.043,-0.556 -5.727,-1.665 -1.687,-1.11 -3.276,-2.603 -4.769,-4.48 V 2.048 C 4.992,1.237 4.704,0.555 4.128,0 3.553,-0.554 2.858,-0.832 2.048,-0.832 1.237,-0.832 0.555,-0.554 0,0"
             style="fill:#72b144;fill-opacity:1;fill-rule:nonzero;stroke:none"
             id="path112" /></g><g
           id="g114"
           transform="translate(461.7319,486.7842)"><path
             d="m 0,0 c -0.555,0.555 -0.832,1.237 -0.832,2.048 v 27.456 c 0,0.81 0.277,1.504 0.832,2.08 0.555,0.576 1.237,0.864 2.048,0.864 0.81,0 1.505,-0.288 2.08,-0.864 0.576,-0.576 0.864,-1.27 0.864,-2.08 V 26.88 c 1.621,1.792 3.37,3.222 5.248,4.288 1.877,1.066 4.096,1.601 6.656,1.601 2.346,0 4.384,-0.556 6.113,-1.665 1.727,-1.11 3.05,-2.624 3.968,-4.543 0.917,-1.92 1.376,-4.033 1.376,-6.336 V 2.048 c 0,-0.811 -0.289,-1.493 -0.865,-2.048 -0.576,-0.554 -1.269,-0.832 -2.08,-0.832 -0.81,0 -1.494,0.278 -2.048,0.832 -0.554,0.555 -0.832,1.237 -0.832,2.048 v 17.536 c 0,5.205 -2.346,7.809 -7.04,7.809 -2.134,0 -4.043,-0.556 -5.727,-1.665 -1.687,-1.11 -3.276,-2.603 -4.769,-4.48 V 2.048 C 4.992,1.237 4.704,0.555 4.128,0 3.553,-0.554 2.858,-0.832 2.048,-0.832 1.237,-0.832 0.555,-0.554 0,0 Z"
             style="fill:none;stroke:#72b144;stroke-width:2;stroke-linecap:butt;stroke-linejoin:miter;stroke-miterlimit:10;stroke-dasharray:none;stroke-opacity:1"
             id="path116" /></g><g
           id="g118"
           transform="translate(519.9087,492.8643)"><path
             d="M 0,0 C 1.536,0.854 3.008,2.005 4.416,3.456 V 16.641 C 3.008,18.09 1.536,19.242 0,20.097 c -1.536,0.852 -3.307,1.279 -5.312,1.279 -3.2,0 -5.814,-0.971 -7.84,-2.912 -2.027,-1.942 -3.039,-4.747 -3.039,-8.416 0,-3.67 1.012,-6.475 3.039,-8.416 2.026,-1.942 4.64,-2.912 7.84,-2.912 2.005,0 3.776,0.426 5.312,1.28 m -12.288,-20.992 c -2.518,0.64 -4.587,1.43 -6.208,2.368 -0.768,0.471 -1.151,1.216 -1.151,2.24 0,0.683 0.244,1.291 0.735,1.824 0.49,0.535 1.099,0.8 1.824,0.8 0.341,0 0.725,-0.085 1.152,-0.256 3.242,-1.621 6.762,-2.432 10.56,-2.432 6.528,0 9.792,3.478 9.792,10.432 v 4.288 c -3.03,-3.243 -6.678,-4.864 -10.944,-4.864 -2.518,0 -4.96,0.629 -7.327,1.888 -2.369,1.259 -4.321,3.137 -5.857,5.632 -1.536,2.496 -2.304,5.536 -2.304,9.12 0,3.584 0.768,6.624 2.304,9.12 1.536,2.496 3.488,4.373 5.857,5.632 2.367,1.259 4.809,1.888 7.327,1.888 4.266,0 7.914,-1.622 10.944,-4.864 v 1.6 c 0,0.81 0.277,1.504 0.832,2.08 0.554,0.576 1.237,0.864 2.048,0.864 0.81,0 1.504,-0.288 2.08,-0.864 0.576,-0.576 0.864,-1.27 0.864,-2.08 V -5.184 c 0,-5.376 -1.302,-9.514 -3.904,-12.416 -2.603,-2.901 -6.315,-4.352 -11.136,-4.352 -2.474,0 -4.971,0.32 -7.488,0.96"
             style="fill:#72b144;fill-opacity:1;fill-rule:nonzero;stroke:none"
             id="path120" /></g><g
           id="g122"
           transform="translate(519.9087,492.8643)"><path
             d="M 0,0 C 1.536,0.854 3.008,2.005 4.416,3.456 V 16.641 C 3.008,18.09 1.536,19.242 0,20.097 c -1.536,0.852 -3.307,1.279 -5.312,1.279 -3.2,0 -5.814,-0.971 -7.84,-2.912 -2.027,-1.942 -3.039,-4.747 -3.039,-8.416 0,-3.67 1.012,-6.475 3.039,-8.416 2.026,-1.942 4.64,-2.912 7.84,-2.912 2.005,0 3.776,0.426 5.312,1.28 z m -12.288,-20.992 c -2.518,0.64 -4.587,1.43 -6.208,2.368 -0.768,0.471 -1.151,1.216 -1.151,2.24 0,0.683 0.244,1.291 0.735,1.824 0.49,0.535 1.099,0.8 1.824,0.8 0.341,0 0.725,-0.085 1.152,-0.256 3.242,-1.621 6.762,-2.432 10.56,-2.432 6.528,0 9.792,3.478 9.792,10.432 v 4.288 c -3.03,-3.243 -6.678,-4.864 -10.944,-4.864 -2.518,0 -4.96,0.629 -7.327,1.888 -2.369,1.259 -4.321,3.137 -5.857,5.632 -1.536,2.496 -2.304,5.536 -2.304,9.12 0,3.584 0.768,6.624 2.304,9.12 1.536,2.496 3.488,4.373 5.857,5.632 2.367,1.259 4.809,1.888 7.327,1.888 4.266,0 7.914,-1.622 10.944,-4.864 v 1.6 c 0,0.81 0.277,1.504 0.832,2.08 0.554,0.576 1.237,0.864 2.048,0.864 0.81,0 1.504,-0.288 2.08,-0.864 0.576,-0.576 0.864,-1.27 0.864,-2.08 V -5.184 c 0,-5.376 -1.302,-9.514 -3.904,-12.416 -2.603,-2.901 -6.315,-4.352 -11.136,-4.352 -2.474,0 -4.971,0.32 -7.488,0.96 z"
             style="fill:none;stroke:#72b144;stroke-width:2;stroke-linecap:butt;stroke-linejoin:miter;stroke-miterlimit:10;stroke-dasharray:none;stroke-opacity:1"
             id="path124" /></g></g></g></g></svg>
