<?xml version="1.0" encoding="UTF-8" standalone="no"?>
<!-- Created with Inkscape (http://www.inkscape.org/) -->

<svg
   width="651.78003"
   height="651.78003"
   viewBox="0 0 172.45012 172.45013"
   version="1.1"
   id="svg10936"
   sodipodi:docname="ikonkasystemrezerwacji_kolorwordpress3.svg"
   inkscape:version="1.1 (c68e22c387, 2021-05-23)"
   xmlns:inkscape="http://www.inkscape.org/namespaces/inkscape"
   xmlns:sodipodi="http://sodipodi.sourceforge.net/DTD/sodipodi-0.dtd"
   xmlns="http://www.w3.org/2000/svg"
   xmlns:svg="http://www.w3.org/2000/svg">
  <sodipodi:namedview
     id="namedview36"
     pagecolor="#ffffff"
     bordercolor="#666666"
     borderopacity="1.0"
     inkscape:pageshadow="2"
     inkscape:pageopacity="0.0"
     inkscape:pagecheckerboard="0"
     showgrid="false"
     inkscape:zoom="0.66970447"
     inkscape:cx="-58.234642"
     inkscape:cy="-120.20227"
     inkscape:window-width="2560"
     inkscape:window-height="1377"
     inkscape:window-x="1912"
     inkscape:window-y="-8"
     inkscape:window-maximized="1"
     inkscape:current-layer="layer1" />
  <defs
     id="defs10933">
    <rect
       x="130.87068"
       y="20.237736"
       width="97.141129"
       height="143.01334"
       id="rect323232-74-3-8-6-7-7-3-7-6" />
  </defs>
  <g
     id="layer1"
     transform="matrix(9.999932,0,0,9.999932,6.203869e-5,0)">
    <path
       style="fill:#f3e7e4;fill-opacity:1;stroke:none;stroke-width:0.264583px;stroke-linecap:butt;stroke-linejoin:miter;stroke-opacity:1"
       d="m 2.7804599,4.6872773 c 0,0 0,8.3297507 0,8.3297507 0,0 -1.86156198,1.86157 -1.86156198,1.86157 0,0 0,2.366411 0,2.366411 0,0 7.19387258,0 7.19387258,0 0,0 1.7669213,-1.76692 1.7669213,-1.76692 0,0 0,-9.1185517 0,-9.1185517 C 7.8597645,5.4375536 5.8410674,4.5161314 4.6571626,4.2372295 3.4732579,3.9583276 3.1269433,4.3227136 2.7804599,4.6872773 Z"
       id="path898-7-6-3-9-8-9-1-4-0" />
    <path
       style="fill:#9ca2a7;fill-opacity:1;fill-rule:evenodd;stroke:none;stroke-width:0.940001;stroke-linecap:round"
       id="rect3388-8-5-4-4-7-7-33-6-6"
       width="9"
       height="15.5"
       x="4.1235785"
       y="0"
       d="m 6.2402452,0 h 4.7666668 a 2.1166667,2.1166667 45 0 1 2.116667,2.1166667 V 13.383333 A 2.1166667,2.1166667 135 0 1 11.006912,15.5 H 6.2402452 A 2.1166667,2.1166667 45 0 1 4.1235785,13.383333 V 2.1166667 A 2.1166667,2.1166667 135 0 1 6.2402452,0 Z" />
    <path
       style="fill:#2271b1;fill-opacity:1;fill-rule:evenodd;stroke:none;stroke-width:0.940001;stroke-linecap:round"
       id="rect3388-8-5-4-4-7-7-3-5-3-9"
       width="8"
       height="14.5"
       x="4.6231909"
       y="0.5003587"
       d="m 6.3429826,0.5003587 h 4.5604164 a 1.7197917,1.7197917 45 0 1 1.719792,1.7197917 V 13.280567 a 1.7197917,1.7197917 135 0 1 -1.719792,1.719792 H 6.3429826 A 1.7197917,1.7197917 45 0 1 4.6231909,13.280567 V 2.2201504 A 1.7197917,1.7197917 135 0 1 6.3429826,0.5003587 Z" />
    <path
       style="fill:#f3e7e4;fill-opacity:1;fill-rule:evenodd;stroke:none;stroke-width:0.940001;stroke-linecap:round;stroke-opacity:1"
       id="rect4697-3-9-9-4-6-2-03-8-7-4"
       width="6.6063724"
       height="2.0944471"
       x="3.7848685"
       y="-4.8749371"
       transform="rotate(90)"
       d="m 4.8432018,-4.8749371 h 4.4897057 a 1.0583333,1.0583333 45 0 1 1.0583335,1.0583333 1.0472825,1.0472825 135.60781 0 1 -1.0583335,1.0361139 H 4.8432018 A 1.0583333,1.0583333 45 0 1 3.7848685,-3.8388232 1.0472825,1.0472825 135.60781 0 1 4.8432018,-4.8749371 Z" />
    <ellipse
       style="fill:#f3e7e4;fill-opacity:1;fill-rule:evenodd;stroke:none;stroke-width:1.24204;stroke-linecap:round;stroke-opacity:1"
       id="path3284-2-8-8-1-9-8-5-9-8"
       cx="3.9512305"
       cy="10.607716"
       rx="1.1263371"
       ry="2.5472426" />
    <path
       style="fill:#f3e7e4;fill-opacity:1;fill-rule:evenodd;stroke:none;stroke-width:0.940001;stroke-linecap:round;stroke-opacity:1"
       id="rect4697-6-6-0-5-7-31-9-4-2-9-1-2-7-9"
       width="3"
       height="2"
       x="11.923653"
       y="9.2662344"
       d="m 12.981986,9.2662344 h 0.883333 a 1.0583333,1.0583333 45 0 1 1.058334,1.0583336 1.0016999,1.0016999 138.33847 0 1 -1.058334,0.941666 h -0.883333 a 1.0583333,1.0583333 45 0 1 -1.058333,-1.058333 1.0016999,1.0016999 138.33847 0 1 1.058333,-0.9416666 z" />
    <path
       style="fill:#f3e7e4;fill-opacity:1;fill-rule:evenodd;stroke:none;stroke-width:0.940001;stroke-linecap:round;stroke-opacity:1"
       id="rect4697-6-6-0-5-7-7-6-5-7-9-0-6-8-0-0"
       width="3"
       height="2"
       x="11.923653"
       y="7.3662415"
       d="m 12.981986,7.3662415 h 0.883333 a 1.0583333,1.0583333 45 0 1 1.058334,1.0583333 1.0016999,1.0016999 138.33847 0 1 -1.058334,0.9416667 H 12.981986 A 1.0583333,1.0583333 45 0 1 11.923653,8.3079082 1.0016999,1.0016999 138.33847 0 1 12.981986,7.3662415 Z" />
    <path
       style="fill:#f3e7e4;fill-opacity:1;fill-rule:evenodd;stroke:none;stroke-width:0.940001;stroke-linecap:round;stroke-opacity:1"
       id="rect4697-6-6-0-5-7-3-4-3-9-9-5-9-4-5-9"
       width="3"
       height="2"
       x="11.923653"
       y="5.4662514"
       d="m 12.981986,5.4662514 h 0.883333 a 1.0583333,1.0583333 45 0 1 1.058334,1.0583333 1.0016999,1.0016999 138.33847 0 1 -1.058334,0.9416667 H 12.981986 A 1.0583333,1.0583333 45 0 1 11.923653,6.4079181 1.0016999,1.0016999 138.33847 0 1 12.981986,5.4662514 Z" />
    <path
       style="fill:#73b144;fill-opacity:1;fill-rule:evenodd;stroke:none;stroke-width:1.98346;stroke-linecap:round;stroke-opacity:1"
       id="rect7080-9-7-5-6-2-1-92-9-6-7"
       width="5.5"
       height="2"
       x="5.878973"
       y="10.991848"
       d="M 6.1435563,10.991848 H 11.11439 a 0.26458333,0.26458333 45 0 1 0.264583,0.264583 v 1.470834 A 0.26458333,0.26458333 135 0 1 11.11439,12.991848 H 6.1435563 A 0.26458333,0.26458333 45 0 1 5.878973,12.727265 v -1.470834 a 0.26458333,0.26458333 135 0 1 0.2645833,-0.264583 z" />
    <g
       aria-label="BOOK"
       transform="matrix(0.26458333,0,0,0.26458333,-28.266465,5.8340843)"
       id="text323230-4-2-2-2-9-1-5-2-5"
       style="font-weight:bold;font-size:5.33333px;line-height:1.25;font-family:Montserrat;-inkscape-font-specification:'Montserrat, Bold';letter-spacing:0px;word-spacing:0px;white-space:pre;shape-inside:url(#rect323232-74-3-8-6-7-7-3-7-6)">
      <path
         d="m 134.05509,23.198778 q 0.32,0.101334 0.50133,0.341333 0.18134,0.234667 0.18134,0.581333 0,0.490667 -0.384,0.757333 -0.37867,0.261333 -1.10933,0.261333 h -1.93067 v -3.733331 h 1.824 q 0.68267,0 1.04533,0.261334 0.368,0.261333 0.368,0.709332 0,0.272 -0.13333,0.485333 -0.128,0.213334 -0.36267,0.336 z m -1.88266,-1.141332 v 0.879999 h 0.85866 q 0.32,0 0.48534,-0.112 0.16533,-0.112 0.16533,-0.330666 0,-0.218667 -0.16533,-0.325333 -0.16534,-0.112 -0.48534,-0.112 z m 1.008,2.431998 q 0.34133,0 0.512,-0.112 0.176,-0.112 0.176,-0.346666 0,-0.464 -0.688,-0.464 h -1.008 v 0.922666 z"
         style="fill:#ffffff"
         id="path851" />
      <path
         d="m 137.20175,25.20411 q -0.58133,0 -1.05066,-0.250666 -0.464,-0.250667 -0.73067,-0.688 -0.26133,-0.442666 -0.26133,-0.991999 0,-0.549333 0.26133,-0.986666 0.26667,-0.442667 0.73067,-0.693333 0.46933,-0.250667 1.05066,-0.250667 0.58134,0 1.04534,0.250667 0.464,0.250666 0.73066,0.693333 0.26667,0.437333 0.26667,0.986666 0,0.549333 -0.26667,0.991999 -0.26666,0.437333 -0.73066,0.688 -0.464,0.250666 -1.04534,0.250666 z m 0,-0.735999 q 0.33067,0 0.59734,-0.149333 0.26666,-0.154667 0.416,-0.426667 0.15466,-0.272 0.15466,-0.618666 0,-0.346667 -0.15466,-0.618666 -0.14934,-0.272 -0.416,-0.421334 -0.26667,-0.154666 -0.59734,-0.154666 -0.33066,0 -0.59733,0.154666 -0.26667,0.149334 -0.42133,0.421334 -0.14934,0.271999 -0.14934,0.618666 0,0.346666 0.14934,0.618666 0.15466,0.272 0.42133,0.426667 0.26667,0.149333 0.59733,0.149333 z"
         style="fill:#ffffff"
         id="path853" />
      <path
         d="m 141.70308,25.20411 q -0.58133,0 -1.05066,-0.250666 -0.464,-0.250667 -0.73067,-0.688 -0.26133,-0.442666 -0.26133,-0.991999 0,-0.549333 0.26133,-0.986666 0.26667,-0.442667 0.73067,-0.693333 0.46933,-0.250667 1.05066,-0.250667 0.58134,0 1.04534,0.250667 0.464,0.250666 0.73066,0.693333 0.26667,0.437333 0.26667,0.986666 0,0.549333 -0.26667,0.991999 -0.26666,0.437333 -0.73066,0.688 -0.464,0.250666 -1.04534,0.250666 z m 0,-0.735999 q 0.33067,0 0.59734,-0.149333 0.26666,-0.154667 0.416,-0.426667 0.15466,-0.272 0.15466,-0.618666 0,-0.346667 -0.15466,-0.618666 -0.14934,-0.272 -0.416,-0.421334 -0.26667,-0.154666 -0.59734,-0.154666 -0.33066,0 -0.59733,0.154666 -0.26667,0.149334 -0.42133,0.421334 -0.14934,0.271999 -0.14934,0.618666 0,0.346666 0.14934,0.618666 0.15466,0.272 0.42133,0.426667 0.26667,0.149333 0.59733,0.149333 z"
         style="fill:#ffffff"
         id="path855" />
      <path
         d="m 145.75641,23.673445 -0.50133,0.522666 v 0.943999 h -0.85867 v -3.733331 h 0.85867 v 1.743999 l 1.65333,-1.743999 h 0.96 l -1.54666,1.663999 1.63733,2.069332 h -1.008 z"
         style="fill:#ffffff"
         id="path857" />
    </g>
    <path
       style="fill:#f3e7e4;fill-opacity:1;fill-rule:evenodd;stroke:none;stroke-width:0.940001;stroke-linecap:round;stroke-opacity:1"
       id="rect4697-6-6-0-5-5-9-9-1-4-7-4-2-3"
       width="3"
       height="2"
       x="11.923653"
       y="11.166248"
       d="m 12.981986,11.166248 h 0.883333 a 1.0583333,1.0583333 45 0 1 1.058334,1.058334 1.0016999,1.0016999 138.33847 0 1 -1.058334,0.941666 h -0.883333 a 1.0583333,1.0583333 45 0 1 -1.058333,-1.058333 1.0016999,1.0016999 138.33847 0 1 1.058333,-0.941667 z" />
    <rect
       style="fill:#9ca2a7;fill-opacity:1;fill-rule:evenodd;stroke:none;stroke-width:0.298278;stroke-linecap:round;stroke-opacity:1"
       id="rect6941-5-0-8-2-8-1-3-4-7-6"
       width="0.5"
       height="0.5"
       x="7.1236548"
       y="1.0003587" />
    <rect
       style="fill:#ffff00;fill-opacity:0;fill-rule:evenodd;stroke:none;stroke-width:0.298278;stroke-linecap:round;stroke-opacity:1"
       id="rect6941-5-7-0-4-9-3-0-1-3-3-9"
       width="0.5"
       height="0.5"
       x="8.1235809"
       y="0.50010693" />
    <rect
       style="fill:#9ca2a7;fill-opacity:1;fill-rule:evenodd;stroke:none;stroke-width:0.596556;stroke-linecap:round;stroke-opacity:1"
       id="rect6941-5-75-8-8-9-3-3-0-1-9-4"
       width="2"
       height="0.5"
       x="8.1236649"
       y="1.0003587" />
    <rect
       style="fill:#9ca2a7;fill-opacity:1;fill-rule:evenodd;stroke:none;stroke-width:0.843658;stroke-linecap:round;stroke-opacity:1"
       id="rect6941-5-75-2-7-9-4-0-0-3-7-0-1"
       width="4"
       height="0.5"
       x="6.6236553"
       y="14.000359" />
    <path
       style="fill:#4c752d;fill-opacity:1;fill-rule:evenodd;stroke-width:0.948673;stroke-linecap:round"
       id="rect5108-3-4-3-8-0-2-0"
       width="4"
       height="3"
       x="6.570509"
       y="2.5208437"
       d="m 7.0996756,2.5208437 h 2.9416664 a 0.52916667,0.52916667 45 0 1 0.529167,0.5291667 V 4.9916771 A 0.52916667,0.52916667 135 0 1 10.041342,5.5208437 H 7.0996756 A 0.52916667,0.52916667 45 0 1 6.570509,4.9916771 V 3.0500104 A 0.52916667,0.52916667 135 0 1 7.0996756,2.5208437 Z" />
    <path
       style="fill:#ffffff;fill-opacity:1;fill-rule:evenodd;stroke-width:0.940001;stroke-linecap:round"
       id="rect4944-1-5-6-9-9-3-9-6"
       width="1.6"
       height="1"
       x="6.8451672"
       y="3.3441622"
       d="m 7.2420422,3.3441622 h 0.80625 a 0.396875,0.396875 45 0 1 0.396875,0.396875 v 0.20625 a 0.396875,0.396875 135 0 1 -0.396875,0.396875 h -0.80625 a 0.396875,0.396875 45 0 1 -0.396875,-0.396875 v -0.20625 a 0.396875,0.396875 135 0 1 0.396875,-0.396875 z" />
    <path
       style="fill:#ffffff;fill-opacity:1;fill-rule:evenodd;stroke-width:0.940001;stroke-linecap:round"
       id="rect4944-0-9-7-8-6-4-1"
       width="1.6"
       height="1"
       x="8.6954269"
       y="3.3438418"
       d="M 9.0923019,3.3438418 H 9.898552 a 0.396875,0.396875 45 0 1 0.396875,0.396875 v 0.20625 A 0.396875,0.396875 135 0 1 9.898552,4.3438418 H 9.0923019 a 0.396875,0.396875 45 0 1 -0.396875,-0.396875 v -0.20625 a 0.396875,0.396875 135 0 1 0.396875,-0.396875 z" />
    <g
       id="g5033-4-9-0-4-2-9-9"
       transform="translate(-95.407484,-154.63446)"
       style="fill:#00a541;fill-opacity:1">
      <g
         id="g4450-6-0-8-6-7-8-6"
         transform="translate(121.32596,143.80333)"
         style="fill:#00a541;fill-opacity:1">
        <rect
           style="fill:#73b144;fill-opacity:1;fill-rule:evenodd;stroke-width:0.743274;stroke-linecap:round"
           id="rect3807-3-0-4-7-7-9-1"
           width="4.5"
           height="0.80000001"
           x="-19.59799"
           y="15.590796" />
        <path
           style="fill:#73b144;fill-opacity:1;fill-rule:evenodd;stroke-width:0.959563;stroke-linecap:round"
           id="rect3807-6-6-8-5-3-7-8-7"
           width="4.5"
           height="1.7"
           x="-19.59799"
           y="14.690796"
           d="m -18.80424,14.690796 h 2.9125 a 0.79375,0.79375 45 0 1 0.79375,0.79375 v 0.1125 a 0.79375,0.79375 135 0 1 -0.79375,0.79375 h -2.9125 a 0.79375,0.79375 45 0 1 -0.79375,-0.79375 v -0.1125 a 0.79375,0.79375 135 0 1 0.79375,-0.79375 z" />
      </g>
    </g>
    <path
       style="fill:#ffffff;fill-opacity:1;fill-rule:evenodd;stroke:none;stroke-width:0.940001;stroke-linecap:round;stroke-opacity:1"
       id="rect7080-7-5-3-3-2-0-4-1-2"
       width="4.5"
       height="0.5"
       x="6.3789349"
       y="6.5573463"
       d="M 6.4583099,6.5573463 H 10.79956 a 0.079375,0.079375 45 0 1 0.07938,0.079375 v 0.34125 a 0.079375,0.079375 135 0 1 -0.07938,0.079375 H 6.4583099 a 0.079375,0.079375 45 0 1 -0.079375,-0.079375 v -0.34125 a 0.079375,0.079375 135 0 1 0.079375,-0.079375 z" />
    <path
       style="fill:#ffffff;fill-opacity:1;fill-rule:evenodd;stroke:none;stroke-width:0.824589;stroke-linecap:round;stroke-opacity:1"
       id="rect7080-4-3-3-4-5-9-0-7-9-6"
       width="3"
       height="0.5"
       x="6.3789349"
       y="7.5573463"
       d="m 6.4583099,7.5573463 h 2.84125 a 0.079375,0.079375 45 0 1 0.079375,0.079375 v 0.34125 a 0.079375,0.079375 135 0 1 -0.079375,0.079375 h -2.84125 a 0.079375,0.079375 45 0 1 -0.079375,-0.079375 v -0.34125 a 0.079375,0.079375 135 0 1 0.079375,-0.079375 z" />
    <path
       style="fill:#ffffff;fill-opacity:1;fill-rule:evenodd;stroke:none;stroke-width:0.909814;stroke-linecap:round;stroke-opacity:1"
       id="rect7080-3-4-7-6-9-3-2-7-2-3"
       width="4.5"
       height="0.5"
       x="6.3789349"
       y="8.5573454"
       d="M 6.4583099,8.5573454 H 10.79956 a 0.079375,0.079375 45 0 1 0.07938,0.079375 v 0.34125 a 0.079375,0.079375 135 0 1 -0.07938,0.079375 H 6.4583099 a 0.079375,0.079375 45 0 1 -0.079375,-0.079375 v -0.34125 a 0.079375,0.079375 135 0 1 0.079375,-0.079375 z" />
    <path
       style="fill:#ffffff;fill-opacity:1;fill-rule:evenodd;stroke:none;stroke-width:0.909814;stroke-linecap:round;stroke-opacity:1"
       id="rect7080-3-4-7-6-9-3-2-7-2-3-5"
       width="4.5"
       height="0.5"
       x="6.3789349"
       y="8.5573454"
       d="M 6.4583099,8.5573454 H 10.79956 a 0.079375,0.079375 45 0 1 0.07938,0.079375 v 0.34125 a 0.079375,0.079375 135 0 1 -0.07938,0.079375 H 6.4583099 a 0.079375,0.079375 45 0 1 -0.079375,-0.079375 v -0.34125 a 0.079375,0.079375 135 0 1 0.079375,-0.079375 z" />
  </g>
</svg>
