<?xml version="1.0" encoding="UTF-8" standalone="no"?>
<svg
   xml:space="preserve"
   width="888"
   height="1250"
   viewBox="0 0 888 1250"
   version="1.1"
   id="svg1826"
   sodipodi:docname="qrcodeandorid.svg"
   inkscape:version="1.1 (c68e22c387, 2021-05-23)"
   xmlns:inkscape="http://www.inkscape.org/namespaces/inkscape"
   xmlns:sodipodi="http://sodipodi.sourceforge.net/DTD/sodipodi-0.dtd"
   xmlns="http://www.w3.org/2000/svg"
   xmlns:svg="http://www.w3.org/2000/svg"><sodipodi:namedview
     id="namedview1910"
     pagecolor="#ffffff"
     bordercolor="#666666"
     borderopacity="1.0"
     inkscape:pageshadow="2"
     inkscape:pageopacity="0.0"
     inkscape:pagecheckerboard="0"
     showgrid="false"
     inkscape:zoom="0.7191104"
     inkscape:cx="162.70103"
     inkscape:cy="694.60823"
     inkscape:window-width="2560"
     inkscape:window-height="1377"
     inkscape:window-x="1912"
     inkscape:window-y="-8"
     inkscape:window-maximized="1"
     inkscape:current-layer="svg1826"
     height="1250px" /><defs
     id="defs1830"><inkscape:path-effect
       effect="simplify"
       id="path-effect3528"
       is_visible="true"
       lpeversion="1"
       steps="1"
       threshold="0.002"
       smooth_angles="0"
       helper_size="5"
       simplify_individual_paths="false"
       simplify_just_coalesce="false" /><linearGradient
       id="SVGID_1_"
       gradientUnits="userSpaceOnUse"
       x1="1682.1077"
       y1="1339.4783"
       x2="1624.2924"
       y2="1309.6345"
       gradientTransform="matrix(11.64,0,0,-22.55,-18285.55,32804.203)"><stop
         offset="0"
         style="stop-color:#00A0FF"
         id="stop14" /><stop
         offset="6.569999e-03"
         style="stop-color:#00A1FF"
         id="stop16" /><stop
         offset="0.2601"
         style="stop-color:#00BEFF"
         id="stop18" /><stop
         offset="0.5122"
         style="stop-color:#00D2FF"
         id="stop20" /><stop
         offset="0.7604"
         style="stop-color:#00DFFF"
         id="stop22" /><stop
         offset="1"
         style="stop-color:#00E3FF"
         id="stop24" /></linearGradient><linearGradient
       id="SVGID_2_"
       gradientUnits="userSpaceOnUse"
       x1="1712.6624"
       y1="1274.8376"
       x2="1606.5613"
       y2="1274.8376"
       gradientTransform="matrix(9.145,0,0,-7.7,-13885.492,12868.085)"><stop
         offset="0"
         style="stop-color:#FFE000"
         id="stop29" /><stop
         offset="0.4087"
         style="stop-color:#FFBD00"
         id="stop31" /><stop
         offset="0.7754"
         style="stop-color:#FFA500"
         id="stop33" /><stop
         offset="1"
         style="stop-color:#FF9C00"
         id="stop35" /></linearGradient><linearGradient
       id="SVGID_3_"
       gradientUnits="userSpaceOnUse"
       x1="1707.4414"
       y1="1290.0475"
       x2="1646.682"
       y2="1211.2225"
       gradientTransform="matrix(15.02,0,0,-11.5775,-24230.182,18079.482)"><stop
         offset="0"
         style="stop-color:#FF3A44"
         id="stop40" /><stop
         offset="1"
         style="stop-color:#C31162"
         id="stop42" /></linearGradient><linearGradient
       id="SVGID_4_"
       gradientUnits="userSpaceOnUse"
       x1="1660.6357"
       y1="1365.6676"
       x2="1687.767"
       y2="1330.4501"
       gradientTransform="matrix(15.02,0,0,-11.5715,-24230.182,18059.826)"><stop
         offset="0"
         style="stop-color:#32A071"
         id="stop47" /><stop
         offset="6.850000e-02"
         style="stop-color:#2DA771"
         id="stop49" /><stop
         offset="0.4762"
         style="stop-color:#15CF74"
         id="stop51" /><stop
         offset="0.8009"
         style="stop-color:#06E775"
         id="stop53" /><stop
         offset="1"
         style="stop-color:#00F076"
         id="stop55" /></linearGradient></defs><g
     fill="#000000"
     id="g1864"
     transform="matrix(1.1201938,0,0,1.1201938,-53.769302,-53.769302)"
     style="display:inline"><g
       transform="translate(96,720)"
       id="g1862"
       inkscape:label="g1862"><g
         transform="scale(12)"
         id="g1860"><path
           id="rect1858"
           style="stroke-width:13.4423"
           d="M 0,0 V 188.19336 H 188.19336 V 0 Z m 241.96094,0 v 26.884766 h -26.88282 v 27.691406 h 26.88282 V 80.654297 H 215.07812 V 108.3457 h 26.88282 0.80664 26.07812 v 26.07813 0.80664 26.07812 0.80664 V 189 h 27.69141 v -26.88477 -0.80664 -26.07812 -0.80664 -26.07813 h 26.07812 v 26.88477 H 349.5 v 26.07812 H 322.61523 V 188.19336 189 v 26.07812 0.80469 26.88477 H 349.5 v 26.07812 h -26.07812 -0.80665 -26.88476 v 26.88477 h -26.07813 v -26.07813 -0.80664 -26.07812 h 26.88477 V 215.07812 H 269.65234 268.8457 242.76758 241.96094 215.88281 215.07812 189 188.19336 161.30859 v 27.68946 h 26.88477 v 26.07812 h -26.88477 v 26.88477 h -26.88476 v 26.88476 0.80665 26.07812 0.80664 26.07813 0.80664 26.07812 H 108.3457 107.53906 81.460938 v -26.07812 -0.80664 -26.07813 H 108.3457 V 322.61523 H 81.460938 80.654297 54.576172 V 296.53711 H 81.460938 V 269.65234 H 108.3457 v -26.88476 h 26.88477 V 215.07812 H 108.3457 107.53906 81.460938 80.654297 54.576172 53.769531 27.691406 26.884766 0 v 27.68946 h 26.884766 0.80664 26.078125 V 268.8457 H 27.691406 26.884766 0 v 26.88477 0.80664 26.88477 H 26.884766 V 349.5 H 0 v 27.69141 h 26.884766 0.80664 26.078125 v 26.07812 H 26.884766 v 26.88477 0.80664 26.07812 H 0 v 26.88477 0.80664 26.07812 0.80664 26.07813 0.80664 26.07812 0.80665 26.07812 0.80664 26.07813 0.80664 26.07812 0.80664 26.88282 h 27.691406 v -26.88282 -0.80664 -26.07812 -0.80664 -26.07813 h 26.078125 v 26.07813 0.80664 26.88476 h 26.884766 v 26.88282 H 108.3457 v -26.88282 h 26.07813 0.80664 26.07812 v 26.88282 H 189 v -26.88282 h 26.07812 0.80469 26.07813 0.80664 26.07812 0.80664 26.88477 v -26.88476 -0.80664 -26.88477 h -26.88477 v -26.88477 h -27.6914 v 26.88477 h -26.88282 v 26.88477 H 189 v -26.88477 h -27.69141 v 26.88477 h -26.07812 v -26.88477 h -27.69141 v 26.88477 0.80664 26.07812 H 81.460938 V 619.1543 618.34766 591.46289 H 54.576172 V 565.38477 H 81.460938 V 538.5 537.69336 511.61523 510.80859 483.92383 H 54.576172 53.769531 27.691406 V 457.8457 h 26.884766 v -26.88476 -0.80664 -26.07813 h 26.078125 v 26.88477 h 26.884763 v 26.07812 0.80664 26.88477 h 26.88477 v 26.07812 0.80664 V 538.5 h 26.88476 v 26.88477 H 188.19336 189 215.88281 V 537.69336 H 189 188.19336 162.11523 V 511.61523 H 188.19336 189 h 26.07812 0.80469 26.07813 V 538.5 h 26.88476 0.80664 26.07813 v 26.88477 h 26.88476 v 26.88476 H 349.5 v 26.07813 h -26.88477 v 26.88476 0.80664 26.88282 h 27.69141 v -26.88282 h 26.07813 v 26.88282 h 27.6914 V 645.23242 H 377.19141 V 619.1543 h 26.07812 0.80664 26.07813 v 26.88476 h 26.88476 v 26.07813 0.80469 V 699 v 0.80664 26.07813 H 430.96094 V 699 h -27.69141 v 26.88477 h -26.88476 v 27.6914 h 26.88476 V 779.6543 H 377.19141 376.38477 350.30664 349.5 323.42188 v -26.07813 -0.80664 -26.07812 h 26.88476 V 699 h -26.88476 -0.80665 -26.07812 V 672.11719 H 268.8457 V 699 H 242.76758 V 672.11719 H 215.07812 V 699 v 0.80664 26.88477 h 26.88282 v 26.07812 h -26.88282 v 26.88477 0.80664 26.07812 0.80664 26.07813 0.80664 26.07812 0.80664 V 888 h 27.68946 v -26.88477 -0.80664 -26.07812 -0.80664 -26.07813 -0.80664 -26.07812 h 26.07812 v 26.07812 0.80664 26.88477 h 27.69141 v -26.88477 -0.80664 -26.07812 h 26.07812 V 807.3457 H 349.5 v 26.07813 h -26.88477 v 26.88476 0.80664 V 888 h 27.69141 v -26.88477 h 26.07813 V 888 h 26.88476 0.80664 26.07813 0.80664 26.07812 0.80664 26.88477 v -26.88477 h 26.88476 V 834.23047 833.42383 807.3457 H 537.69336 538.5 565.38477 V 779.6543 H 538.5 537.69336 510.80859 v 26.88476 h -26.07812 -0.80664 -26.07813 v -26.07812 h 26.88477 v -26.88477 h 26.88476 v -27.6914 h -26.88476 v -26.07813 h 26.07812 0.80664 26.07813 v 26.07813 0.80664 26.88476 h 26.88476 0.80665 26.07812 0.80664 26.07813 0.80664 26.07812 v 26.07813 h -26.88476 v 26.88476 h -26.88477 v 26.88477 h -26.07812 -0.80665 -26.88476 v 27.6914 h 26.88476 0.80665 26.07812 V 888 h 26.88477 0.80664 26.07812 0.80664 26.88282 V 861.11523 H 699 V 888 h 26.88477 0.80664 26.88476 v -27.69141 h -26.88476 v -26.07812 -0.80664 -26.88477 H 699 v 26.88477 h -26.07812 v -26.88477 h -26.88282 v -26.07812 h 26.07813 0.80469 H 699 h 0.80664 26.07813 0.80664 26.07812 v 26.88476 h 26.88477 0.80664 26.07812 v 26.07813 H 779.6543 v 27.6914 h 26.88476 0.80664 26.07813 V 888 h 27.6914 v -27.69141 h -26.88476 v -26.07812 h 26.88476 V 806.53906 H 834.23047 833.42383 807.3457 V 779.6543 h -26.88476 v -26.07813 h 26.07812 0.80664 26.88477 v -26.88476 h 26.88476 V 699.80664 H 888 v -26.88476 -0.80469 -26.88477 h -27.69141 v 26.88477 0.80469 V 699 H 834.23047 V 672.11719 H 807.3457 v -26.07813 h 26.88477 V 619.1543 h 26.88476 V 592.26953 H 888 v -27.69141 h -26.88477 v -26.88476 h -26.88476 v -26.07813 h 26.88476 V 484.73047 H 888 V 457.03906 H 861.11523 V 430.1543 h -26.88476 v -26.07813 h 26.88476 V 377.19141 H 888 V 349.5 h -26.88477 -0.80664 -26.88476 v 26.88477 0.80664 26.07812 h -26.88477 v 27.69141 h 26.88477 v 26.07812 0.80664 26.07813 0.80664 26.07812 H 807.3457 v -26.07812 -0.80664 -26.88477 H 780.46094 V 430.1543 h -26.88477 -0.80664 -26.07812 v -26.88477 h -26.88477 v -26.07812 h 26.88477 v -26.88477 h 26.07812 0.80664 26.07813 0.80664 26.88476 v -26.88476 h 26.88477 v -26.88477 h 26.88476 V 269.65234 H 888 v -27.6914 h -26.88477 v -26.88282 h -27.6914 v 26.88282 H 807.3457 v -26.88282 h -27.6914 v 27.68946 h 26.88476 v 26.07812 h -26.07812 -0.80664 -26.88477 v 26.88477 0.80664 26.07812 h -26.07812 v -26.07812 -0.80664 -26.07813 -0.80664 -26.07812 h 26.88476 v -27.68946 h -27.6914 v 26.88282 h -26.07813 v -26.88282 h -27.68945 v 27.68946 H 699 v 26.07812 h -26.88281 v 26.88477 h -26.07813 -0.80664 -26.07812 v -26.07813 h 26.88476 v -27.6914 h -27.6914 v 26.88476 h -26.88477 v 26.88477 h -26.07812 -0.80665 -26.88476 v 26.88476 H 510.80859 V 349.5 H 484.73047 V 322.61523 H 457.8457 v -26.88476 h -26.88476 v -26.07813 h 26.07812 0.80664 26.88477 v -26.88476 h 26.07812 v 26.88476 h 26.88477 0.80664 26.88477 v -26.88476 -0.80664 -26.07813 h 26.07812 0.80664 26.88477 V 189 v -0.80664 -26.07813 -0.80664 -26.07812 h 26.07812 v 26.07812 0.80664 V 189 h 27.68946 v -26.88477 -0.80664 -26.88476 H 646.03906 V 108.3457 h 26.88282 V 80.654297 H 646.03906 V 53.769531 h -27.6914 V 80.654297 H 592.26953 V 53.769531 H 565.38477 V 27.691406 h 26.07812 0.80664 26.07813 0.80664 26.88476 V 0 h -26.88476 -0.80664 -26.07813 -0.80664 -26.07812 -0.80665 -26.07812 -0.80664 -26.07813 -0.80664 -26.07812 -0.80664 -26.07813 -0.80664 -26.88476 v 26.884766 h -26.07813 -0.80664 -26.07812 V 0 H 349.5 v 26.884766 h -26.07812 -0.80665 -26.88476 V 53.769531 H 269.65234 V 27.691406 26.884766 0 Z M 699,0 V 188.19336 H 887.19336 V 0 Z M 26.884766,26.884766 H 161.30859 V 161.30859 H 26.884766 Z m 699.000004,0 H 860.30859 V 161.30859 H 725.88477 Z m -268.03907,0.80664 h 26.07813 v 26.884766 h 26.88476 v 26.078125 0.806641 26.078122 H 484.73047 V 80.654297 H 457.8457 V 54.576172 53.769531 Z m 53.76953,0 h 26.07813 V 53.769531 H 511.61523 Z M 53.769531,53.769531 V 134.42383 H 134.42383 V 53.769531 Z m 698.999999,0 v 80.654299 h 80.6543 V 53.769531 Z M 323.42188,54.576172 H 349.5 h 0.80664 26.07813 V 80.654297 H 349.5 V 107.53906 H 323.42188 V 81.460938 80.654297 Z m 80.65429,0 h 26.07813 v 26.884766 h 26.88476 V 107.53906 H 430.1543 v 26.88477 h -26.88477 v 26.88476 h -26.07812 v -26.07812 -0.80664 -26.07813 h 26.88476 V 81.460938 80.654297 Z M 269.65234,81.460938 h 26.07813 v 26.078122 h -26.07813 z m 295.73243,0 h 26.07812 V 107.53906 H 565.38477 Z M 457.8457,108.3457 h 26.07813 v 26.88477 h 26.88476 0.80664 26.07813 v 26.07812 0.80664 26.07813 h -26.07813 v -26.88477 h -27.6914 V 188.19336 189 215.07812 h -26.88477 v 26.88282 H 430.96094 V 215.07812 H 404.07617 V 189 188.19336 162.11523 H 430.1543 V 189 h 27.6914 v -27.69141 h -26.88476 v -26.07812 h 26.88476 z m 80.6543,0 h 26.07812 v 26.07813 H 538.5 Z m 53.76953,0 h 26.07813 v 26.07813 h -26.07813 z m -377.19141,26.07813 v 26.88476 0.80664 V 189 h 27.68946 v -26.88477 -0.80664 -26.88476 z m 135.22852,27.6914 h 26.07813 V 188.19336 189 215.07812 H 350.30664 V 189 188.19336 Z m 215.07813,0 h 26.07812 v 26.07813 H 565.38477 Z M 538.5,189 h 26.07812 v 26.07812 H 538.5 Z m -26.88477,26.88281 h 26.07813 v 26.07813 h -26.07813 z m -295.73242,26.88477 h 26.07813 v 26.07812 h -26.07813 z m 161.3086,0 h 26.07812 0.80664 26.07813 v 26.07812 h -26.88477 v 26.88477 h -26.88476 v 26.88476 H 349.5 V 349.5 h -26.07812 v -26.07812 -0.80665 -26.07812 h 26.88476 v -26.88477 h 26.88477 z m 430.15429,26.88476 h 26.07813 v 26.07813 H 807.3457 Z m -645.23047,26.88477 h 26.07813 v 26.07812 h -26.07813 z m 53.76758,0 h 26.07813 v 26.07812 h -26.07813 z m 564.57813,0 h 26.07812 v 26.07812 H 780.46094 Z M 189,323.42188 h 26.07812 V 349.5 H 189 Z m 80.65234,0 h 26.07813 V 349.5 h -26.07813 z m 161.3086,0 h 26.07812 V 349.5 h -26.07812 z m 107.53906,0 h 26.07812 0.80665 26.07812 V 349.5 H 565.38477 564.57812 538.5 Z m 80.6543,0 h 26.07812 0.80664 26.07813 v 26.88476 H 699 v 26.07813 h -26.88281 v 26.88476 0.80664 26.07813 h -26.07813 v -26.88477 h -26.88476 -0.80664 -26.07813 v -26.07812 -0.80664 -26.07813 h 26.07813 v 26.88477 h 27.6914 V 349.5 H 619.1543 Z m 80.65234,0 h 26.07813 V 349.5 h -26.07813 z m -537.69141,26.88476 h 26.07813 v 26.07813 h -26.07813 z m 80.65235,0 h 26.07812 v 26.07813 h -26.07812 z m 53.76953,0 h 26.07812 v 26.88477 H 349.5 v 26.07812 h -26.88477 v 26.88477 0.80664 26.88476 H 349.5 h 0.80664 26.07813 0.80664 26.07812 0.80664 26.07813 v 26.07813 H 404.07617 403.26953 377.19141 376.38477 350.30664 349.5 323.42188 322.61523 296.53711 V 457.8457 457.03906 430.1543 h -26.88477 v -26.07813 h 26.88477 v -26.88476 -0.80664 z m 80.6543,0 h 26.07812 0.80664 26.07813 v 26.07813 h -26.07813 -0.80664 -26.07812 z m 80.65429,0 h 26.07813 v 26.07813 H 457.8457 Z m 294.92383,26.07813 v 27.6914 h 27.69141 v -27.6914 z m -536.88672,0.80664 h 26.07813 v 26.07812 0.80664 26.07813 0.80664 26.07812 H 215.88281 V 430.1543 H 189 188.19336 161.30859 v 27.6914 H 188.19336 189 215.07812 v 26.07813 H 189 h -0.80664 -26.07813 -0.80664 -26.07812 v -26.07813 -0.80664 -26.07812 -0.80664 -26.07813 h 26.07812 0.80664 26.07813 H 189 215.88281 Z m 295.73242,0 h 26.07813 v 26.88476 h 26.88476 v 26.88477 h 26.88477 v 26.07812 H 565.38477 564.57812 538.5 V 430.1543 h -27.69141 v 26.88476 H 484.73047 V 430.1543 H 457.8457 v -26.07813 h 26.07813 0.80664 26.88476 z m -161.30859,26.88476 h 26.07813 0.80664 26.07812 v 26.07813 h -26.07812 -0.80664 -26.07813 z m 80.6543,26.88477 h 26.07812 v 26.07812 h -26.07812 z m 268.8457,0 h 26.07813 v 26.07812 H 699.80664 Z M 242.76758,457.8457 h 26.07812 v 26.07813 h -26.07812 z m 430.1543,0 H 699 v 26.07813 h -26.07812 z m 53.76953,0 h 26.07812 0.80664 26.07813 v 26.07813 h -26.07813 -0.80664 -26.07812 z m -457.03907,26.88477 h 26.07813 v 26.07812 h -26.07813 z m 161.3086,0 h 26.07812 v 26.88476 h 27.69141 v -26.88476 h 26.07812 0.80664 26.07813 v 26.88476 h 26.88476 V 538.5 h 26.88477 v 26.07812 H 565.38477 564.57812 538.5 h -0.80664 -26.07813 -0.80664 -26.07812 v -26.88476 h -27.69141 v 26.88476 h -26.07812 v -26.88476 h -26.88477 v -26.07813 h 26.88477 z m 161.30859,0 h 26.07813 0.80664 26.07812 0.80664 26.07813 v 26.88476 H 699 h 0.80664 26.07813 0.80664 26.07812 v 26.07813 h -26.88476 v 26.88476 h -26.07813 v -26.88476 h -26.88476 -0.80469 -26.07813 -0.80664 -26.07812 -0.80664 -26.07813 v -26.07813 -0.80664 z M 323.42188,511.61523 H 349.5 h 0.80664 26.07813 V 538.5 h 26.88476 v 26.88477 h 26.88477 v 26.07812 h -26.07813 -0.80664 -26.07812 V 564.57812 H 350.30664 349.5 323.42188 V 538.5 537.69336 Z m 457.03906,0 h 26.07812 V 538.5 h 26.88477 v 26.07812 0.80665 26.07812 0.80664 26.07813 H 807.3457 v -26.07813 -0.80664 -26.88477 H 780.46094 V 538.5 537.69336 Z M 27.691406,538.5 h 26.078125 v 26.07812 H 27.691406 Z m 618.347654,26.88477 h 26.07813 0.80469 H 699 v 26.07812 h -26.88281 v 26.88477 0.80664 26.07812 h -26.07813 v -26.88476 h -27.6914 v 26.88476 h -26.07813 v -26.07812 -0.80664 -26.07813 h 26.07813 0.80664 26.88476 z m 107.53711,0 h 26.07813 v 26.07812 0.80664 26.07813 h -26.07813 -0.80664 -26.88476 v 26.88476 h -26.07813 v -26.07812 -0.80664 -26.07813 h 26.07813 0.80664 26.88476 z m -322.61523,26.88476 h 26.07812 0.80664 26.07813 0.80664 26.07812 0.80664 26.07813 0.80664 26.07812 v 26.07813 h -26.88476 v 26.88476 0.80664 26.07813 H 511.61523 V 645.23242 H 484.73047 483.92383 457.8457 V 618.34766 H 430.96094 Z M 162.11523,619.1543 h 26.07813 v 26.07812 h -26.07813 z m 403.26954,26.88476 h 26.07812 v 26.07813 h -26.07812 z m 53.76953,26.88282 h 26.07812 V 699 H 619.1543 Z m 53.76758,0 H 699 h 0.80664 26.07813 0.80664 26.07812 V 699 v 0.80664 26.07813 0.80664 26.07812 H 726.69141 725.88477 699.80664 699 672.92188 V 726.69141 725.88477 699.80664 699 Z m 107.53906,0 h 26.07812 V 699 v 0.80664 26.07813 H 780.46094 V 699.80664 699 Z M 0,699 V 887.19336 H 188.19336 V 699 Z m 699,0 v 27.69141 h 27.69141 V 699 Z m -429.34766,0.80664 h 26.07813 v 26.07813 0.80664 26.07812 h -26.07813 v -26.07812 -0.80664 z m 295.73243,0 h 26.07812 0.80664 26.07813 v 26.07813 h -26.07813 -0.80664 -26.07812 z M 26.884766,725.88477 H 161.30859 V 860.30859 H 26.884766 Z m 430.960934,0.80664 h 26.07813 v 26.07812 H 457.8457 Z M 53.769531,752.76953 v 80.6543 h 80.654299 v -80.6543 z m 350.306639,27.69141 h 26.07813 v 26.07812 H 404.07617 Z M 619.1543,807.3457 h 26.07812 v 26.88477 h 26.88477 v 26.07812 h -26.07813 -0.80664 -26.07812 v -26.07812 -0.80664 z m -241.96289,26.88477 h 26.07812 0.80664 26.07813 0.80664 26.07812 0.80664 26.07813 v 26.07812 h -26.07813 -0.80664 -26.07812 -0.80664 -26.07813 -0.80664 -26.07812 z"
           transform="matrix(0.07439189,0,0,0.07439189,-4,-56)" /></g></g></g><g
     id="g2851"
     transform="matrix(0.16336142,0,0,0.16336142,-68.619265,620.46392)"><path
       class="st0"
       d="M 5654.4457,3853.834 H 621.44572 c -111,0 -201.4,-90.4 -201.4,-200.5 v -1203 c 0,-110.5 90.4,-200.5 201.4,-200.5 H 5654.4457 c 110.9,0 201.4,90 201.4,200.5 v 1203 c 0,110.1 -90.5,200.5 -201.4,200.5 z"
       id="path6"
       style="clip-rule:evenodd;fill-rule:evenodd" /><path
       class="st1"
       d="m 5654.4457,2281.934 c 93.1,0 169.3,75.7 169.3,168.4 v 1203 c 0,92.7 -75.7,168.4 -169.3,168.4 H 621.44572 c -93.1,0 -169.3,-75.7 -169.3,-168.4 v -1203 c 0,-92.7 75.7,-168.4 169.3,-168.4 0,0 5032.99998,0 5032.99998,0 z m 0,-32.1 H 621.44572 c -111,0 -201.4,90.4 -201.4,200.5 v 1203 c 0,110.5 90.4,200.5 201.4,200.5 H 5654.4457 c 110.9,0 201.4,-90 201.4,-200.5 v -1203 c 0,-110.1 -90.5,-200.5 -201.4,-200.5 z"
       id="path8"
       style="clip-rule:evenodd;fill:#a6a6a6;fill-rule:evenodd" /><path
       class="st2"
       d="m 3283.6457,2780.434 c -36.3,0 -66.9,-12.7 -91.1,-37.7 -24,-24.3 -37.4,-57.8 -36.8,-92 0,-36.5 12.4,-67.4 36.8,-91.9 24.1,-25 54.7,-37.7 91,-37.7 35.9,0 66.5,12.7 91.1,37.7 24.4,25.3 36.8,56.2 36.8,91.9 -0.4,36.6 -12.8,67.5 -36.8,91.9 -24.1,25.2 -54.7,37.8 -91,37.8 z m -1080.1,0 c -35.5,0 -66.3,-12.5 -91.5,-37.2 -25,-24.6 -37.7,-55.7 -37.7,-92.4 0,-36.7 12.7,-67.8 37.7,-92.4 24.7,-24.7 55.5,-37.2 91.5,-37.2 17.6,0 34.7,3.5 51.1,10.6 16.1,6.9 29.2,16.3 38.9,27.8 l 2.4,2.9 -27.1,26.6 -2.8,-3.3 c -15.3,-18.2 -35.8,-27.1 -62.9,-27.1 -24.2,0 -45.3,8.6 -62.7,25.6 -17.5,17.1 -26.4,39.5 -26.4,66.6 0,27.1 8.9,49.5 26.4,66.6 17.4,17 38.5,25.6 62.7,25.6 25.8,0 47.5,-8.6 64.4,-25.6 10,-10 16.2,-24 18.4,-41.7 h -86.9 v -37.4 h 124.2 l 0.5,3.4 c 0.9,6.3 1.8,12.8 1.8,18.8 0,34.5 -10.4,62.4 -31,83 -23.4,24.4 -54,36.8 -91,36.8 z m 1436.1,-5.3 h -38.3 l -117.3,-187.7 1,33.8 v 153.8 h -38.3 v -248.5 h 43.7 l 1.2,1.9 110.3,176.8 -1,-33.7 v -145 h 38.7 z m -643.8,0 h -38.8 v -211.2 h -67.3 v -37.4 h 173.3 v 37.4 h -67.3 v 211.2 z m -137.7,0 h -38.7 v -248.6 h 38.7 z m -217.5,0 h -38.7 v -211.2 h -67.3 v -37.4 h 173.3 v 37.4 h -67.3 z m -130.5,-0.4 h -148.4 v -248.2 h 148.4 v 37.4 h -109.6 v 68.2 h 98.9 v 37 h -98.9 v 68.2 h 109.6 z m 710.8,-57.7 c 17.3,17.3 38.3,26 62.7,26 25.1,0 45.6,-8.5 62.7,-26 17,-17 25.6,-39.3 25.6,-66.2 0,-26.9 -8.6,-49.3 -25.5,-66.2 -17.3,-17.3 -38.4,-26 -62.7,-26 -25.1,0 -45.6,8.5 -62.6,26 -17,17 -25.6,39.3 -25.6,66.2 0,26.9 8.5,49.3 25.4,66.2 z"
       id="path10"
       style="fill:#ffffff" /><path
       class="st3"
       d="m 3152.1457,3122.234 c -94.5,0 -171.1,71.7 -171.1,170.6 0,98 77.1,170.6 171.1,170.6 94.5,0 171.1,-72.2 171.1,-170.6 0,-98.9 -76.6,-170.6 -171.1,-170.6 z m 0,273.6 c -51.7,0 -96.2,-42.8 -96.2,-103.4 0,-61.5 44.6,-103.4 96.2,-103.4 51.7,0 96.2,41.9 96.2,103.4 0.1,61 -44.5,103.4 -96.2,103.4 z m -373.3,-273.6 c -94.5,0 -171.1,71.7 -171.1,170.6 0,98 77.1,170.6 171.1,170.6 94.5,0 171.1,-72.2 171.1,-170.6 0,-98.9 -76.7,-170.6 -171.1,-170.6 z m 0,273.6 c -51.7,0 -96.2,-42.8 -96.2,-103.4 0,-61.5 44.6,-103.4 96.2,-103.4 51.7,0 96.2,41.9 96.2,103.4 0,61 -44.5,103.4 -96.2,103.4 z m -444.2,-221.5 v 72.2 h 173.3 c -5.3,40.5 -18.7,70.4 -39.2,90.9 -25.4,25.4 -64.6,53 -133.7,53 -106.5,0 -189.8,-86 -189.8,-192.5 0,-106.5 83.3,-192.5 189.8,-192.5 57.5,0 99.4,22.7 130.5,51.7 l 51.2,-51.2 c -43.2,-41.4 -100.7,-73.1 -181.3,-73.1 -146.1,0 -268.7,119 -268.7,264.7 0,146.1 122.5,264.7 268.7,264.7 78.9,0 138.1,-25.8 184.9,-74.4 47.7,-47.7 62.8,-115 62.8,-169.3 0,-16.9 -1.3,-32.1 -4,-45 h -244.6 c 0.1,-0.1 0.1,0.8 0.1,0.8 z m 1816.9,56.2 c -14.3,-38.3 -57.5,-108.7 -146.1,-108.7 -87.8,0 -160.8,69.1 -160.8,170.6 0,95.8 72.2,170.6 169.3,170.6 78,0 123.4,-47.7 142.1,-75.7 l -57.9,-38.8 c -19.2,28.5 -45.9,47.2 -83.8,47.2 -38.3,0 -65.1,-17.4 -82.9,-51.7 l 228.1,-94.5 c 0,0.1 -8,-19 -8,-19 z m -232.6,57 c -1.8,-65.9 51.2,-99.4 89.1,-99.4 29.9,0 54.8,14.7 63.3,36.1 z m -185.3,165.3 h 74.9 v -501.2 h -74.9 z m -123,-292.7 h -2.7 c -16.9,-20.1 -49,-38.3 -90,-38.3 -85.1,0 -163.5,74.9 -163.5,171.1 0,95.8 78,169.8 163.5,169.8 40.5,0 73.1,-18.3 90,-38.8 h 2.7 v 24.5 c 0,65.1 -34.8,100.2 -90.9,100.2 -45.9,0 -74.4,-33 -86,-60.6 l -65.1,27.2 c 18.7,45 68.6,100.7 151,100.7 87.8,0 162.2,-51.7 162.2,-177.8 v -306.1 h -70.8 v 28.1 c 0.1,0 -0.4,0 -0.4,0 z m -86,235.7 c -51.7,0 -94.9,-43.2 -94.9,-102.9 0,-60.2 43.2,-103.8 94.9,-103.8 51.2,0 90.9,44.1 90.9,103.8 0.5,59.7 -39.6,102.9 -90.9,102.9 z m 977.6,-444.2 h -179.1 v 501.2 h 74.9 v -189.8 h 104.3 c 82.9,0 164.4,-60.1 164.4,-155.5 0,-95.4 -81.2,-155.9 -164.5,-155.9 z m 2.2,241.4 h -106.5 v -172 h 106.5 c 56.1,0 87.8,46.3 87.8,86 0,39.3 -32.1,86 -87.8,86 z m 462.5,-71.7 c -54.4,0 -110.5,24.1 -133.7,76.6 l 66.4,27.6 c 14.3,-27.6 40.5,-37 68.2,-37 38.8,0 78,23.2 78.9,64.6 v 5.3 c -13.4,-7.6 -42.8,-19.2 -78,-19.2 -71.7,0 -144.4,39.2 -144.4,112.7 0,67.3 58.8,110.5 124.3,110.5 50.3,0 78,-22.7 95.3,-49 h 2.7 v 38.8 h 72.2 v -192 c 0,-89.4 -66.4,-138.9 -151.9,-138.9 z m -9.4,274.5 c -24.5,0 -58.8,-12 -58.8,-42.8 0,-38.8 42.8,-53.5 79.3,-53.5 33,0 48.6,7.1 68.2,16.9 -5.4,45 -43.4,79 -88.7,79.4 z m 424.7,-263.8 -86,217.4 h -2.7 l -89.1,-217.4 h -80.6 l 133.7,303.9 -76.2,168.9 h 78 l 205.7,-472.8 c 0,0 -82.8,0 -82.8,0 z m -674.2,320.8 h 74.9 v -501.2 h -74.9 z"
       id="path12"
       style="clip-rule:evenodd;fill:#ffffff;fill-rule:evenodd" /><path
       class="st4"
       d="m 838.44572,2551.934 c -11.6,12.5 -18.3,31.6 -18.3,56.6 v 886.7 c 0,25 6.7,44.1 18.7,56.1 l 3.1,2.7 496.79998,-496.8 v -11.1 l -497.19998,-496.9 c 0,0 -3.1,2.7 -3.1,2.7 z"
       id="path27"
       style="clip-rule:evenodd;fill:url(#SVGID_1_);fill-rule:evenodd" /><path
       class="st5"
       d="m 1504.0457,3223.334 -165.7,-165.7 v -11.6 l 165.7,-165.7 3.6,2.2 196,111.4 c 56.1,31.6 56.1,83.8 0,115.8 l -196,111.4 c 0,0 -3.6,2.2 -3.6,2.2 z"
       id="path38"
       style="clip-rule:evenodd;fill:url(#SVGID_2_);fill-rule:evenodd" /><path
       class="st6"
       d="m 1507.6457,3221.134 -169.3,-169.3 -499.89998,499.9 c 18.3,19.6 49,21.8 83.3,2.7 l 585.89998,-333.3"
       id="path45"
       style="clip-rule:evenodd;fill:url(#SVGID_3_);fill-rule:evenodd" /><path
       class="st7"
       d="m 1507.6457,2882.534 -585.89998,-332.8 c -34.3,-19.6 -65.1,-16.9 -83.3,2.7 l 499.89998,499.4 z"
       id="path58"
       style="clip-rule:evenodd;fill:url(#SVGID_4_);fill-rule:evenodd" /><path
       class="st8"
       d="m 1504.0457,3217.534 -581.89998,330.6 c -32.5,18.7 -61.5,17.4 -80.2,0.4 l -3.1,3.1 3.1,2.7 c 18.7,16.9 47.7,18.3 80.2,-0.4 l 585.89998,-332.8 c 0,0 -4,-3.6 -4,-3.6 z"
       id="path60"
       style="clip-rule:evenodd;opacity:0.2;fill-rule:evenodd;enable-background:new" /><path
       class="st9"
       d="m 1703.6457,3103.934 -200.1,113.6 3.6,3.6 196,-111.4 c 28.1,-16 41.9,-37 41.9,-57.9 -1.7,19.2 -16,37.4 -41.4,52.1 z"
       id="path62"
       style="clip-rule:evenodd;opacity:0.12;fill-rule:evenodd;enable-background:new" /><path
       class="st10"
       d="m 921.74572,2555.534 781.89998,444.2 c 25.4,14.3 39.7,33 41.9,52.1 0,-20.9 -13.8,-41.9 -41.9,-57.9 l -781.89998,-444.2 c -56.1,-32.1 -101.6,-5.3 -101.6,58.8 v 5.8 c 0,-64.2 45.5,-90.5 101.6,-58.8 z"
       id="path64"
       style="clip-rule:evenodd;opacity:0.25;fill:#ffffff;fill-rule:evenodd;enable-background:new" /></g></svg>
