<?xml version="1.0" encoding="utf-8"?>
<svg viewBox="0 0 448 448" xmlns="http://www.w3.org/2000/svg">
  <path style="fill: rgb(34, 113, 177);" d="m224 448c-123.464844 0-224-100.535156-224-224s100.535156-224 224-224 224 100.535156 224 224-100.535156 224-224 224zm0-426.667969c-111.734375 0-202.667969 90.933594-202.667969 202.667969s90.933594 202.667969 202.667969 202.667969 202.667969-90.933594 202.667969-202.667969-90.933594-202.667969-202.667969-202.667969zm0 0"/>
  <line x1="184.624" y1="296.233" x2="414.622" y2="67.278" style="fill: rgb(34, 113, 177);"/>
  <line x1="207.368" y1="255.423" x2="141.032" y2="161.533" style="fill: rgb(34, 113, 177);"/>
  <line x1="215.916" y1="0.522" x2="223.739" y2="448" style="fill: rgb(34, 113, 177);"/>
  <rect height="21.362" transform="matrix(-0.688219, 0.725503, -0.725503, -0.688219, 613.054382, -35.235607)" style="fill: rgb(34, 113, 177);" x="303.818" y="93.877" width="304.618"/>
  <rect height="21.362" transform="matrix(-0.725503, -0.688219, 0.688219, -0.725503, 482.619141, 615.049561)" style="fill: rgb(34, 113, 177);" x="303.818" y="93.877" width="304.618"/>
</svg>